<svg xmlns="http://www.w3.org/2000/svg" width="9.18" height="10.92" viewBox="0 0 9.18 10.92"><defs><style>.cls-1{fill:#e5002c;}</style></defs><g id="レイヤー_2" data-name="レイヤー 2"><g id="_1P" data-name="1P"><g id="指図書一覧"><g id="コンテンツ"><g id="一覧"><g id="表"><rect class="cls-1" x="1.6" y="7.16" width="4.15" height="0.4"/><rect class="cls-1" x="1.6" y="5.55" width="4.15" height="0.4"/><rect class="cls-1" x="1.6" y="3.94" width="4.15" height="0.4"/><rect class="cls-1" x="3.79" y="2.34" width="1.95" height="0.4"/><path class="cls-1" d="M7.34,8.45V.85a.76.76,0,0,0,0-.15A.85.85,0,0,0,6.5,0H3.07a1,1,0,0,0-.66.27L.27,2.41A1,1,0,0,0,0,3.07V8.45a.85.85,0,0,0,.85.85H6.5A.85.85,0,0,0,7.34,8.45ZM2.77.59v1.9c0,.2-.08.28-.29.28H.58ZM.48,8.45V3.19H2.74a.35.35,0,0,0,.2,0A.41.41,0,0,0,3.14,3a.5.5,0,0,0,0-.21V.48H6.5A.38.38,0,0,1,6.84.7a.37.37,0,0,1,0,.15v7.6a.38.38,0,0,1-.37.37H.85A.37.37,0,0,1,.48,8.45Z"/><path class="cls-1" d="M8.33,1.63H7.76l0,.47h.54a.37.37,0,0,1,.37.37v7.61a.37.37,0,0,1-.37.37H2.68a.38.38,0,0,1-.34-.23.32.32,0,0,1,0-.14V9.75H1.84v.33a.66.66,0,0,0,0,.14.84.84,0,0,0,.83.7H8.33a.85.85,0,0,0,.85-.84V2.47A.84.84,0,0,0,8.33,1.63Z"/></g></g></g></g></g></g></svg>