<svg xmlns="http://www.w3.org/2000/svg" width="8.6" height="11.37" viewBox="0 0 8.6 11.37"><defs><style>.cls-1{fill:#e5002c;}</style></defs><g id="レイヤー_2" data-name="レイヤー 2"><g id="レイヤー_1-2" data-name="レイヤー 1"><g id="レイヤー_2-2" data-name="レイヤー 2"><g id="_1P" data-name=" 1P"><g id="指図書一覧"><g id="コンテンツ"><g id="一覧"><g id="表"><path class="cls-1" d="M.71,10.37a1.11,1.11,0,0,0,1.11,1H6.77a1.11,1.11,0,0,0,1.11-1l.54-7.18H.16ZM7.82,3.75l-.5,6.58a.54.54,0,0,1-.55.5H1.82a.55.55,0,0,1-.55-.5L.77,3.75Z"/><path class="cls-1" d="M2.73,9.75a.22.22,0,0,0,.21-.24h0L2.73,5.18a.23.23,0,0,0-.46,0l.22,4.35A.23.23,0,0,0,2.73,9.75Z"/><path class="cls-1" d="M4.29,9.75a.23.23,0,0,0,.23-.23V5.19a.23.23,0,0,0-.18-.27.24.24,0,0,0-.27.18.14.14,0,0,0,0,.09V9.52A.22.22,0,0,0,4.29,9.75Z"/><path class="cls-1" d="M5.86,9.75a.23.23,0,0,0,.24-.22L6.32,5.2a.23.23,0,1,0-.46,0L5.64,9.5A.24.24,0,0,0,5.86,9.75Z"/></g></g></g></g></g><path class="cls-1" d="M8.14,1.09S7.4,1,7.19,1,5.45.86,5.45.86L5.36.45A.57.57,0,0,0,4.82,0L3.46.12A.55.55,0,0,0,3,.67l0,.41s-1.53.38-1.7.45l-.9.26A.53.53,0,0,0,0,2.33l.05.46L8.6,2l0-.47A.53.53,0,0,0,8.14,1.09ZM4.62.85,3.75.93A.15.15,0,0,1,3.6.8.14.14,0,0,1,3.73.65L4.6.57A.14.14,0,0,1,4.75.7a.14.14,0,0,1-.13.15Z"/></g></g></g></svg>