<?xml version="1.0" encoding="utf-8"?>
<!-- Generator: Adobe Illustrator 24.2.0, SVG Export Plug-In . SVG Version: 6.00 Build 0)  -->
<svg version="1.1" id="レイヤー_1" xmlns="http://www.w3.org/2000/svg" xmlns:xlink="http://www.w3.org/1999/xlink" x="0px"
	 y="0px" viewBox="0 0 8.6 11.4" style="enable-background:new 0 0 8.6 11.4;" xml:space="preserve">
<style type="text/css">
	.st0{fill:#E5002C;}
</style>
<g id="レイヤー_2_2_">
	<g id="_1P_1_">
		<g id="指図書一覧_1_">
			<g id="コンテンツ_1_">
				<g id="一覧_1_">
					<g id="表_1_">
						<path class="st0" d="M0.7,10.4c0.1,0.6,0.5,1,1.1,1h4.9c0.6,0,1.1-0.4,1.1-1l0.5-7.2H0.2L0.7,10.4z M7.8,3.8l-0.5,6.6
							c0,0.3-0.3,0.5-0.6,0.5H1.8c-0.3,0-0.5-0.2-0.6-0.5L0.8,3.8H7.8z"/>
						<path class="st0" d="M2.7,9.8c0.1,0,0.2-0.1,0.2-0.2c0,0,0,0,0,0L2.7,5.2C2.7,5.1,2.6,5,2.5,5S2.3,5.1,2.3,5.2l0.2,4.4
							C2.5,9.7,2.6,9.8,2.7,9.8z"/>
						<path class="st0" d="M4.3,9.8c0.1,0,0.2-0.1,0.2-0.2V5.2c0-0.1-0.1-0.2-0.2-0.3C4.2,4.9,4.1,5,4.1,5.1c0,0,0,0.1,0,0.1v4.3
							C4.1,9.6,4.2,9.7,4.3,9.8z"/>
						<path class="st0" d="M5.9,9.8c0.1,0,0.2-0.1,0.2-0.2l0.2-4.3C6.3,5.1,6.2,5,6.1,5S5.9,5.1,5.9,5.2L5.6,9.5
							C5.6,9.6,5.7,9.7,5.9,9.8z"/>
						<path class="st0" d="M8.2,1.8c0,0-0.7-0.1-0.9-0.2S5.6,1.3,5.6,1.3L5.5,0.9c0-0.3-0.2-0.5-0.5-0.5H3.6c-0.3,0-0.5,0.2-0.5,0.5
							L3,1.3c0,0-1.5,0.2-1.7,0.3S0.3,1.8,0.3,1.8C0.1,1.9,0,2.1,0,2.3v0.5h8.6V2.3C8.6,2.1,8.4,1.9,8.2,1.8z M4.7,1.3H3.9
							c-0.1,0-0.1-0.1-0.1-0.1C3.7,1,3.8,1,3.9,1h0.9C4.8,1,4.9,1,4.9,1.1C4.9,1.2,4.8,1.3,4.7,1.3C4.7,1.3,4.7,1.3,4.7,1.3z"/>
					</g>
				</g>
			</g>
		</g>
	</g>
</g>
</svg>
