<?xml version="1.0" encoding="utf-8"?>
<!-- Generator: Adobe Illustrator 24.2.1, SVG Export Plug-In . SVG Version: 6.00 Build 0)  -->
<svg version="1.1" id="レイヤー_1" xmlns="http://www.w3.org/2000/svg" xmlns:xlink="http://www.w3.org/1999/xlink" x="0px"
	 y="0px" viewBox="0 0 512 358.4" style="enable-background:new 0 0 512 358.4;" xml:space="preserve">
<style type="text/css">
	.st0{fill:#E5002C;}
</style>
<g id="レイヤー_2_1_">
	<g id="_2">
		<path class="st0" d="M511.6,175.4c-0.3-1.2-0.7-2.5-1.2-3.6c-0.7-1.5-1.4-3-2.2-4.4c-4.4-7.3-9.2-14.4-14.4-21.2
			c-12.1-16.2-25.1-31.8-38.9-46.7c-15.4-16.6-32.5-32.9-49.9-45.3c-24.6-17.4-48.6-31-73.1-40.2C283-4.7,229-4.7,180.2,14
			c-24.5,9.2-48.5,22.8-73.1,40.2C81.2,72.6,55.7,99.9,36,123.6c-9.9,11.9-18.1,22.8-24.1,31.4c-3,4.3-5.4,7.9-7.3,11
			c-0.9,1.6-1.7,3-2.5,4.5c-0.4,0.9-0.8,1.8-1.2,2.7c-0.2,0.7-0.5,1.4-0.6,2.2c-0.6,2.5-0.6,5.1,0,7.6c0.3,1.2,0.7,2.5,1.2,3.6
			c0.7,1.5,1.4,3,2.2,4.4c4.4,7.3,9.3,14.4,14.5,21.2c12.1,16.2,25.1,31.8,38.9,46.7c15.4,16.6,32.5,32.9,49.9,45.3
			c24.6,17.4,48.6,31,73.1,40.2c48.8,18.6,102.8,18.6,151.7,0c24.5-9.2,48.5-22.8,73.1-40.2c25.9-18.4,51.4-45.7,71.1-69.5
			c9.8-11.9,18.1-22.8,24.1-31.3c3-4.3,5.4-7.9,7.3-11c0.9-1.6,1.7-3,2.5-4.5c0.4-0.9,0.8-1.8,1.1-2.8c0.2-0.7,0.4-1.4,0.6-2.2
			C512.1,180.5,512.1,177.9,511.6,175.4L511.6,175.4z M440.6,226.4c-16.7,19.1-36.6,38.8-54.4,51.4c-23,16.3-44.6,28.3-65.8,36.3
			c-41.5,15.9-87.4,15.9-128.9,0c-21.2-8-42.8-20-65.8-36.3c-21.7-15.3-46.3-41.3-64.9-63.7c-9.3-11.2-17.1-21.6-22.5-29.3
			c-1.5-2.2-2.8-4-3.8-5.7c6.4-9.8,20.2-28.2,36.8-47.2c16.7-19.1,36.6-38.8,54.4-51.4c23-16.3,44.6-28.3,65.8-36.3
			c41.5-15.9,87.4-15.9,128.9,0c21.2,8,42.8,20,65.8,36.3c21.7,15.3,46.4,41.3,64.9,63.7c9.3,11.2,17.1,21.6,22.5,29.3
			c1.5,2.2,2.8,4,3.9,5.7C471.1,189,457.3,207.5,440.6,226.4L440.6,226.4z"/>
		<path class="st0" d="M256,64.9c-63.1,0-114.3,51.2-114.3,114.3S192.8,293.5,256,293.5s114.3-51.2,114.3-114.3c0,0,0,0,0,0
			C370.3,116.1,319.1,64.9,256,64.9C256,64.9,256,64.9,256,64.9z"/>
	</g>
</g>
</svg>
