<svg xmlns="http://www.w3.org/2000/svg" width="416.59" height="512" viewBox="0 0 416.59 512"><defs><style>.cls-1{fill:#595757;}</style></defs><g id="レイヤー_2" data-name="レイヤー 2"><g id="_2" data-name="2"><path class="cls-1" d="M330.71,0H147.41l-9.32,9.31L9.31,138.1,0,147.42V426.11A86,86,0,0,0,85.9,512H330.71a86,86,0,0,0,85.88-85.89V85.9A86,86,0,0,0,330.71,0Zm54.08,426.11a54.09,54.09,0,0,1-54.08,54.09H85.9a54.09,54.09,0,0,1-54.1-54.09V160.59h83.71a45.08,45.08,0,0,0,45.08-45.07V31.8H330.71a54.09,54.09,0,0,1,54.08,54.1Z"/><path class="cls-1" d="M124.24,252.79H95.71c-5.43,0-8.68,3.53-8.68,8.82v73.75c0,6.39,4.2,10.6,10,10.6s9.91-4.21,9.91-10.6V313a.73.73,0,0,1,.83-.82h16.43c20.1,0,32.19-12.22,32.19-29.61C156.43,264.87,144.48,252.79,124.24,252.79ZM123,294.89H107.8a.72.72,0,0,1-.82-.81V270.85a.73.73,0,0,1,.82-.82H123c8.42,0,13.45,5,13.45,12.5S131.43,294.89,123,294.89Z"/><path class="cls-1" d="M202.48,252.79H180.62c-5.44,0-8.69,3.53-8.69,8.82v74.84c0,5.3,3.25,8.7,8.69,8.7h21.86c19.69,0,31.93-6.25,36.82-21.33,1.76-5.3,2.72-11.68,2.72-24.86s-1-19.55-2.72-24.85C234.41,259,222.18,252.79,202.48,252.79Zm17.67,64.11c-2.32,7.33-9,10.45-18.21,10.45h-9.23a.72.72,0,0,1-.82-.81V271.39a.72.72,0,0,1,.82-.81h9.23c9.24,0,15.89,3.12,18.21,10.46.95,3.12,1.62,8.56,1.62,17.93S221.1,313.77,220.15,316.9Z"/><path class="cls-1" d="M313.46,252.79H268.65c-5.43,0-8.7,3.53-8.7,8.82v73.75c0,6.39,4.22,10.6,10.05,10.6s9.92-4.21,9.92-10.6V309a.72.72,0,0,1,.81-.81h26.08c5.84,0,9.23-3.53,9.23-8.56s-3.39-8.55-9.23-8.55H280.73a.72.72,0,0,1-.81-.82V270.85a.72.72,0,0,1,.81-.82h32.73c5.57,0,9.25-3.66,9.25-8.55S319,252.79,313.46,252.79Z"/></g></g></svg>