<svg xmlns="http://www.w3.org/2000/svg" width="416.59" height="512" viewBox="0 0 416.59 512"><defs><style>.cls-1{fill:#c9caca;}</style></defs><g id="レイヤー_2" data-name="レイヤー 2"><g id="レイヤー_1-2" data-name="レイヤー 1"><path id="file" class="cls-1" d="M330.71,0H147.41l-9.32,9.31L9.31,138.1,0,147.42V426.11A86,86,0,0,0,85.9,512H330.71a86,86,0,0,0,85.88-85.89V85.9A86,86,0,0,0,330.71,0Zm54.08,426.11a54.09,54.09,0,0,1-54.08,54.09H85.9a54.09,54.09,0,0,1-54.1-54.08h0V160.59h83.71a45.09,45.09,0,0,0,45.08-45.07V31.8H330.71a54.09,54.09,0,0,1,54.08,54.1Z"/></g></g></svg>