<svg xmlns="http://www.w3.org/2000/svg" width="416.59" height="512" viewBox="0 0 416.59 512"><defs><style>.cls-1{fill:#595757;}</style></defs><g id="レイヤー_2" data-name="レイヤー 2"><g id="_2" data-name="2"><g id="imgfile"><path id="file" class="cls-1" d="M330.71,0H147.41l-9.32,9.31L9.31,138.1,0,147.42V426.11A86,86,0,0,0,85.9,512H330.71a86,86,0,0,0,85.88-85.89V85.9A86,86,0,0,0,330.71,0Zm54.08,426.11a54.09,54.09,0,0,1-54.08,54.09H85.9a54.09,54.09,0,0,1-54.1-54.09V160.59h83.71a45.08,45.08,0,0,0,45.08-45.07V31.8H330.71a54.09,54.09,0,0,1,54.08,54.1Z"/><path class="cls-1" d="M169.12,254.78a25.54,25.54,0,1,0-25.54-25.54A25.57,25.57,0,0,0,169.12,254.78Z"/><path class="cls-1" d="M232.08,245.58a15.52,15.52,0,0,0-13,7.16l-29.88,45.74a13.08,13.08,0,0,1-22.2-.08,15.37,15.37,0,0,0-26.1,0L90.45,376.85H326.13L245.07,252.74A15.52,15.52,0,0,0,232.08,245.58Z"/></g></g></g></svg>