<svg xmlns="http://www.w3.org/2000/svg" width="512" height="432.5" viewBox="0 0 512 432.5"><defs><style>.cls-1{fill:#e5002c;}</style></defs><title>icon_ul2</title><g id="レイヤー_2" data-name="レイヤー 2"><g id="_2" data-name="2"><path class="cls-1" d="M268.41,6.69C265.14,2.38,260.73,0,256,0s-9.14,2.38-12.41,6.69L154,124.78c-3.35,4.42-4.28,8.69-2.61,12S157,142,162.55,142h34.31a16.86,16.86,0,0,1,16.84,16.84v97.42a20.05,20.05,0,0,0,20,20h44.54a20.05,20.05,0,0,0,20-20V158.86A16.86,16.86,0,0,1,315.14,142h34.3c5.54,0,9.51-1.85,11.17-5.2s.74-7.62-2.61-12Z"/><path class="cls-1" d="M445.22,254.41v111.3H66.78V254.41H0V407.06A25.47,25.47,0,0,0,25.44,432.5H486.56A25.47,25.47,0,0,0,512,407.06V254.41Z"/></g></g></svg>