<svg id="レイヤー_1" data-name="レイヤー 1" xmlns="http://www.w3.org/2000/svg" viewBox="0 0 1295.59 508.35"><defs><style>.cls-1{fill:none;stroke:#000;stroke-miterlimit:10;}.cls-2{fill:#e5002c;}</style></defs><rect class="cls-1" x="67.6" y="120.28" width="1163.04" height="358.98"/><path d="M97.51,47.31a.87.87,0,0,1-.47.39C94.2,61.34,87.15,69.44,75.37,73.58a19,19,0,0,0-1.65-2.09c11.16-3.63,18-11.66,20.16-22.57H70.33V46.51H94.81l.51-.32Z"/><path d="M105.76,62.6V45.11l3.42.22c0,.32-.29.57-.86.64V62.6Zm20-18.89c0,.36-.29.53-.87.61V55.76c0,7.56-2.59,14.47-12.92,18.47a10.31,10.31,0,0,0-1.87-1.94c10-3.71,12.2-9.87,12.2-16.53V43.49Z"/><path d="M132.65,56.48h30.06V59H134a1.65,1.65,0,0,1-1.15.68Z"/><rect class="cls-2" x="103.1" y="155.3" width="1092.03" height="287.98"/></svg>