<svg id="レイヤー_1" data-name="レイヤー 1" xmlns="http://www.w3.org/2000/svg" viewBox="0 0 1295.59 508.35"><defs><style>.cls-1{fill:none;stroke:#000;stroke-miterlimit:10;}.cls-2{fill:#e5002c;}</style></defs><rect class="cls-1" x="155.62" y="139.02" width="1064" height="51.08"/><rect class="cls-1" x="155.62" y="190.1" width="1064" height="51.08"/><rect class="cls-1" x="155.62" y="241.18" width="1064" height="51.08"/><rect class="cls-1" x="155.62" y="292.3" width="1064" height="51.08"/><rect class="cls-1" x="155.62" y="343.27" width="1064" height="51.08"/><rect class="cls-1" x="155.62" y="394.35" width="1064" height="51.08"/><path d="M169.49,81.18a.93.93,0,0,1-.25.45,5.42,5.42,0,0,0-.69,1.44,37.47,37.47,0,0,1-3.79,7.86,24.25,24.25,0,0,1-4.82,5.26,1.12,1.12,0,0,1-.49.31c-.11,0-.28-.13-.51-.4a5.9,5.9,0,0,0-1.41-1,24.11,24.11,0,0,0,8.25-11.34,12.47,12.47,0,0,0,.93-3.85,9.67,9.67,0,0,1,2.3.79Q169.49,80.91,169.49,81.18ZM189,75.57c0,.16-.09.24-.28.24l-4.8,0H163.44l-4.8,0c-.19,0-.28-.08-.28-.24V73.79c0-.16.09-.24.28-.24l4.8.07h8.75v-3a21.7,21.7,0,0,0-.26-4.25c.95,0,1.79.12,2.51.22q.48.06.48.36a2.38,2.38,0,0,1-.21.68,13.63,13.63,0,0,0-.18,3.06v2.92h9.35l4.8-.07c.19,0,.28.08.28.24Zm.9,19.35a6.5,6.5,0,0,0-1.69,1.23q-.39.42-.51.42a1.41,1.41,0,0,1-.47-.31A34.29,34.29,0,0,1,177.73,81a.67.67,0,0,1,0-.18q0-.19.51-.33l1.1-.29a2.06,2.06,0,0,1,.35-.07q.19,0,.27.27A29.46,29.46,0,0,0,189.86,94.92Z"/><path d="M221.75,75l-.07,3.85V89.31l0,4.89a2.82,2.82,0,0,1-1,2.41c-.6.5-2.34.76-5.22.76a1.14,1.14,0,0,1-.65-.11,1.94,1.94,0,0,1-.21-.62,6.68,6.68,0,0,0-.69-1.68c1.49.11,2.73.17,3.71.17a2.34,2.34,0,0,0,1.55-.38,1.85,1.85,0,0,0,.35-1.27V88.7h-19a17.56,17.56,0,0,1-4.5,8.68c-.23.24-.38.35-.45.35a1.52,1.52,0,0,1-.55-.33,5.46,5.46,0,0,0-1.48-.86A15.79,15.79,0,0,0,198,90.18,26.8,26.8,0,0,0,199,81.81V78.89l0-3a41.22,41.22,0,0,1-3.37,2.39,1.48,1.48,0,0,1-.48.25c-.1,0-.25-.18-.44-.55a4.52,4.52,0,0,0-.93-1.23,24.33,24.33,0,0,0,9.68-9.05,9.39,9.39,0,0,0,1-2.3c.89.23,1.58.44,2.07.61.29.12.44.28.44.48s-.12.29-.35.46A3.06,3.06,0,0,0,205.8,68l-.58.84h7.42a1.77,1.77,0,0,0,.72-.1,1,1,0,0,1,.37-.11,2.09,2.09,0,0,1,1,.6q.69.6.69.9c0,.17-.15.33-.44.47a3.24,3.24,0,0,0-.93.9c-1,1.51-1.83,2.62-2.38,3.32h4.71l5.08-.07C221.65,74.76,221.75,74.85,221.75,75Zm-9.69-4.39H204a28.24,28.24,0,0,1-3.67,4.15c.5,0,1.85,0,4,0h4.92A46.51,46.51,0,0,0,212.06,70.65Zm-3,16.22V82.56H201.2a40.08,40.08,0,0,1-.28,4.31Zm0-6.1V76.62H201.2v4.15Zm10.51,0V76.62h-8.46v4.15Zm0,6.1V82.56h-8.46v4.31Z"/><path d="M244.39,73.3a3.73,3.73,0,0,0-1,1c-.22.36-.36.54-.43.54s-.27-.11-.55-.35a33.62,33.62,0,0,1-4.71-5.24,30.62,30.62,0,0,1-6.52,7.14,1,1,0,0,1-.49.28c-.13,0-.27-.18-.41-.54a3.53,3.53,0,0,0-.82-1.25A21.62,21.62,0,0,0,236,68a6.25,6.25,0,0,0,.75-1.88,13.89,13.89,0,0,1,2.11.51c.25.08.37.19.37.32s-.1.29-.31.43l-.3.25A29.87,29.87,0,0,0,244.39,73.3Zm-.62,18a6,6,0,0,0-.14,1.34,1.36,1.36,0,0,1-.14.7,1.32,1.32,0,0,1-.58.23q-3.54,1.2-9.76,2.95a3.4,3.4,0,0,0-1.3.65.61.61,0,0,1-.47.18q-.27,0-.42-.39a14.13,14.13,0,0,1-.69-2,16.15,16.15,0,0,0,3.31-.6c.7-.16,1.61-.4,2.74-.72V83.07h-1.79l-3.75.07c-.2,0-.3-.09-.3-.28V81.49c0-.18.1-.28.3-.28l3.75.07h1.79V77.47H236l-3.11.07a.25.25,0,0,1-.28-.28V75.92c0-.2.09-.3.28-.3l3.11.09h3l3.09-.09c.19,0,.28.1.28.3v1.34a.25.25,0,0,1-.28.28L239,77.47h-.62v3.81h1l3.74-.07c.2,0,.3.1.3.28v1.37c0,.19-.1.28-.3.28l-3.74-.07h-1V93.16Q241.51,92.23,243.77,91.35Zm-9.28-.17v.12c0,.13-.15.25-.44.35l-.9.32a.94.94,0,0,1-.29.09q-.15,0-.18-.27a23.17,23.17,0,0,0-1.32-5.53.71.71,0,0,1-.05-.18c0-.11.11-.19.33-.26l.93-.32.3-.09c.09,0,.16.08.21.23A24.18,24.18,0,0,1,234.49,91.18Zm8.81-5.26a.45.45,0,0,1-.21.37,1.68,1.68,0,0,0-.44.79c-.41,1.34-.81,2.49-1.18,3.45-.14.35-.28.53-.41.53a2.23,2.23,0,0,1-.49-.16,3.52,3.52,0,0,0-1-.3A29.87,29.87,0,0,0,241,86.26a11.37,11.37,0,0,0,.2-1.27,9.63,9.63,0,0,1,1.79.62C243.19,85.7,243.3,85.81,243.3,85.92Zm8-18.14a.75.75,0,0,1-.25.48,2.8,2.8,0,0,0-.47,1,43.85,43.85,0,0,1-2.11,6.22,28.77,28.77,0,0,1-3,5.19c-.17.29-.3.44-.38.44s-.21-.14-.48-.41a4.28,4.28,0,0,0-1.25-1,21.72,21.72,0,0,0,3.5-5.77,35.13,35.13,0,0,0,1.64-5.18,9.19,9.19,0,0,0,.26-2,14.08,14.08,0,0,1,2,.6C251.16,67.42,251.33,67.58,251.33,67.78Zm8.53,29.88a.26.26,0,0,1-.29.29h-1.63c-.19,0-.28-.1-.28-.29V95.75H248v2c0,.19-.09.29-.28.29h-1.64a.26.26,0,0,1-.28-.29l.07-6.89V87.4l-.07-4.68a.25.25,0,0,1,.28-.28l4.15.07h5.21l4.14-.07a.26.26,0,0,1,.29.28l-.07,4.22v3.87Zm-2.2-3.83v-9.4H248v9.4Zm4.69-14.38a6.11,6.11,0,0,0-1.3,1.29c-.23.31-.37.47-.42.47s-.23-.15-.44-.44a34.76,34.76,0,0,1-3.87-6.52A49.33,49.33,0,0,1,254,67.71a.69.69,0,0,1-.06-.21q0-.12.48-.33l.91-.36a1,1,0,0,1,.34-.1c.09,0,.17.08.23.25a38.53,38.53,0,0,0,2.69,7.1A25.69,25.69,0,0,0,262.35,79.45Z"/><path d="M281.07,70.26a.24.24,0,0,1-.28.28l-3.74-.07h-1a19,19,0,0,1,1.33,2.71.34.34,0,0,1,0,.16c0,.1-.12.19-.35.26l-1.16.33a1.3,1.3,0,0,1-.32.06c-.11,0-.19-.09-.26-.27a16.65,16.65,0,0,0-1.41-3.25h-3a24.31,24.31,0,0,1-3.48,4.36c-.27.27-.45.4-.54.4s-.28-.13-.51-.4A3.67,3.67,0,0,0,265.3,74a20,20,0,0,0,5.16-6.91,6.47,6.47,0,0,0,.45-1.55,17.15,17.15,0,0,1,2,.44c.27.07.41.19.41.36a.68.68,0,0,1-.34.5,3.3,3.3,0,0,0-.52.83l-.55,1.07h5.12l3.74-.07a.25.25,0,0,1,.28.28Zm16.35,23.38c0,.19-.1.28-.3.28l-4.67-.07h-10l.07,4.06c0,.18-.08.26-.25.26h-1.67c-.18,0-.28-.08-.28-.26,0,0,0-.22,0-.54,0-1.13,0-2.3.05-3.52h-9.51l-4.67.07c-.21,0-.32-.09-.32-.28V92.3c0-.18.11-.28.32-.28l4.67.07h9.51V89.63h-5.94l-5.11.07c-.17,0-.25-.09-.25-.28v-1.3c0-.19.08-.28.25-.28l5.11.07h5.94V85.48H275.5l-5,.07c-.19,0-.29-.09-.29-.28V84a.26.26,0,0,1,.29-.29l5,.08h4.85V81.28h-8.89l-4.89.07c-.2,0-.3-.09-.3-.28v-1.3c0-.16.1-.25.3-.25l4.89.07h8.89V77.2h-4.64l-5.08.07a.24.24,0,0,1-.28-.28V75.73a.24.24,0,0,1,.28-.28l5.08.07h4.64a12.47,12.47,0,0,0-.21-2.38c.6,0,1.37.08,2.32.18.27,0,.41.15.41.33a1.28,1.28,0,0,1-.18.49,2.84,2.84,0,0,0-.28,1.38h5l5.48-.07c.19,0,.29.09.29.28l-.07,3.14v.72l3.67-.07a.23.23,0,0,1,.25.25v1.3c0,.19-.09.28-.25.28l-3.67-.07v.86l.07,3.13c0,.19-.1.28-.29.28l-5.43-.07h-5v2.43h6.29l5.08-.07a.24.24,0,0,1,.28.28v1.3a.24.24,0,0,1-.28.28l-5.08-.07h-6.29v2.46h10l4.67-.07c.2,0,.3.1.3.28Zm-.14-23.38c0,.19-.09.28-.26.28l-4.4-.07h-2.76a24.92,24.92,0,0,1,1.46,2.71.32.32,0,0,1,.05.16c0,.1-.12.19-.37.26l-1.07.33a1.3,1.3,0,0,1-.35.07c-.11,0-.19-.1-.26-.29a16.3,16.3,0,0,0-1.59-3.24h-3.46a19.08,19.08,0,0,1-1.69,2.2c-.24.29-.44.44-.58.44s-.25-.13-.49-.37a2.8,2.8,0,0,0-1-.69,17.93,17.93,0,0,0,3.39-5,5.45,5.45,0,0,0,.46-1.59,17.37,17.37,0,0,1,2.06.44c.24.07.37.18.37.32a.67.67,0,0,1-.25.47,4.06,4.06,0,0,0-.67.9l-.52,1.07h7.29l4.4-.07c.17,0,.26.1.26.28Zm-6.21,9.33V77.2h-8.66v2.39Zm0,4.21V81.28h-8.66V83.8Z"/><rect class="cls-2" x="485.57" y="145.7" width="617.2" height="38.07"/><rect class="cls-2" x="485.57" y="196.78" width="617.2" height="38.07"/><rect class="cls-2" x="485.57" y="247.85" width="617.2" height="38.07"/><rect class="cls-2" x="485.57" y="298.93" width="617.2" height="38.07"/><rect class="cls-2" x="485.57" y="350.01" width="617.2" height="38.07"/><rect class="cls-2" x="485.57" y="401.08" width="617.2" height="38.07"/><path d="M1124.88,84.92a22.57,22.57,0,0,0-4.14,7.08,21.47,21.47,0,0,0-1,6.81,20.61,20.61,0,0,0,1.35,7.7,23.29,23.29,0,0,0,3.8,6.18l-.86.72a21.67,21.67,0,0,1-4.94-7.2,19.93,19.93,0,0,1-1.33-7.4,19.46,19.46,0,0,1,1.74-8.35A22.46,22.46,0,0,1,1124,84.2Z"/><path d="M1154.34,109.68a4.6,4.6,0,0,0-1,1.29c-.16.32-.3.48-.39.48a1.69,1.69,0,0,1-.46-.15,22.78,22.78,0,0,1-7.38-5,22.37,22.37,0,0,1-4.53-7.14,13.62,13.62,0,0,1-2.39,5.5,20.39,20.39,0,0,1-9.09,6.69,1.45,1.45,0,0,1-.44.12c-.12,0-.27-.14-.46-.43a4.52,4.52,0,0,0-1-1q6.32-2.19,9.39-6.39A12.26,12.26,0,0,0,1139,98h-5.13l-4.17.06a.21.21,0,0,1-.24-.23v-1.4a.21.21,0,0,1,.24-.23l4.17.06h5.39a57.35,57.35,0,0,0,.37-6.33h-7.32l-4,.06c-.16,0-.25-.08-.25-.23v-1.4c0-.15.09-.23.25-.23l4,.06h16.94l4-.06a.21.21,0,0,1,.24.23v1.4a.21.21,0,0,1-.24.23l-4-.06h-7.73a57.36,57.36,0,0,1-.4,6.33h6.58l4.16-.06c.17,0,.25.08.25.23v1.4c0,.15-.08.23-.25.23l-4.16-.06h-5.92a20,20,0,0,0,5.39,7.65A22.75,22.75,0,0,0,1154.34,109.68Z"/><path d="M1184.37,106.48q-.22,3.09-1.8,4c-1,.6-3.41.91-7.4.91A33.93,33.93,0,0,1,1168,111c-1.16-.34-1.74-1.33-1.74-3V99h-2.46a21.92,21.92,0,0,1-1.26,8.38,11.23,11.23,0,0,1-3.41,4.3,1.13,1.13,0,0,1-.43.26c-.07,0-.21-.12-.42-.37a3.36,3.36,0,0,0-1-.89,9.46,9.46,0,0,0,3.89-4.6,21,21,0,0,0,.93-7.08H1162l-3.6.08a.22.22,0,0,1-.24-.25v-1.2a.21.21,0,0,1,.24-.24l3.6.06h5.07l3.6-.06c.17,0,.25.08.25.24v1.2a.22.22,0,0,1-.25.25l-.35,0L1168,99v8.53q0,1.67,1.23,2a34.46,34.46,0,0,0,5.78.29q5.33,0,6.36-.72c.79-.49,1.23-1.77,1.33-3.83a4.15,4.15,0,0,0,1.25.57c.3.07.45.21.45.39S1184.39,106.3,1184.37,106.48Zm-1.1-13.84c0,.18-.07.26-.23.26h-1.33c-.18,0-.27-.08-.27-.26V88.55h-21.21v4.24c0,.17-.08.26-.23.26h-1.39c-.16,0-.24-.09-.24-.26l.06-3.06v-1l-.06-1.66a.21.21,0,0,1,.24-.23l4.11.06h16.2l4.12-.06a.2.2,0,0,1,.23.23l-.06,1.42v1.12Zm-13.53.87a.21.21,0,0,1-.24.23l-2.82-.06H1164l-2.83.06a.21.21,0,0,1-.23-.23V92.25c0-.17.08-.25.23-.25l2.83.06h2.67l2.82-.06c.16,0,.24.08.24.25Zm14.13,2.82a.21.21,0,0,1-.24.24l-3.39-.06v4.86l.06,3.9a2.24,2.24,0,0,1-.81,1.86c-.46.38-1.53.57-3.19.57h-.44c-.3,0-.48,0-.54-.1a1.53,1.53,0,0,1-.18-.53,3.12,3.12,0,0,0-.54-1.2,23.73,23.73,0,0,0,2.73.14,1.06,1.06,0,0,0,1.2-1.2v-8.3h-3.61l-3.63.06c-.16,0-.23-.08-.23-.24V95.09c0-.16.07-.24.23-.24l3.63.06h3.61V94a17.25,17.25,0,0,0-.21-3.32c.59,0,1.22.09,1.89.17.27,0,.4.14.4.28a2,2,0,0,1-.19.57,7.46,7.46,0,0,0-.18,2.19v1l3.39-.06a.21.21,0,0,1,.24.24Zm-7.72,5.89a.47.47,0,0,1,0,.16c0,.08-.08.17-.25.27l-.75.48a1.06,1.06,0,0,1-.33.15q-.11,0-.21-.21a20.46,20.46,0,0,0-2.31-3.85.34.34,0,0,1-.08-.18c0-.08.09-.16.25-.26l.76-.43a1,1,0,0,1,.25-.1c.06,0,.12,0,.19.13A21.34,21.34,0,0,1,1176.15,102.22Z"/><path d="M1194.45,86.3c0,.08-.09.2-.28.38a2.9,2.9,0,0,0-.5,1.17,41.84,41.84,0,0,1-1.59,4.44v15.06l.06,4.71a.21.21,0,0,1-.24.24h-1.36a.21.21,0,0,1-.24-.24l.06-4.71V99.56c0-.83,0-2.18.12-4.06a33.46,33.46,0,0,1-2.52,3.91c-.15.19-.27.29-.37.29s-.14-.1-.2-.29a2.67,2.67,0,0,0-.72-1.14,30.77,30.77,0,0,0,5.47-11,8.46,8.46,0,0,0,.26-2,11.39,11.39,0,0,1,1.68.57C1194.33,86,1194.45,86.16,1194.45,86.3Zm4.37,20.52c0,.09-.07.19-.21.29a3.18,3.18,0,0,0-.6.69,18.32,18.32,0,0,1-3.09,3.69c-.21.21-.35.31-.43.31s-.22-.11-.44-.34a3,3,0,0,0-.87-.65,15.71,15.71,0,0,0,3.57-4,3.13,3.13,0,0,0,.42-1,14.13,14.13,0,0,1,1.38.71C1198.73,106.59,1198.82,106.7,1198.82,106.82Zm4.92-2.26a.21.21,0,0,1-.24.24l-2.62-.06h-2.53l-2.63.06a.21.21,0,0,1-.23-.24l.06-3.94V91.4l-.06-3.9a.21.21,0,0,1,.23-.24l2.63.06h2.53l2.62-.06a.21.21,0,0,1,.24.24l-.06,3.9v9.22Zm-1.69-11.93V88.79h-4.88v3.84Zm0,5.18V94.06h-4.88v3.75Zm0,5.47v-4h-4.88v4Zm3.37,6.87a2.76,2.76,0,0,0-1,.74c-.19.23-.32.34-.38.34s-.22-.12-.43-.37a30,30,0,0,1-2.88-4.14.28.28,0,0,1-.06-.13c0-.06.11-.15.33-.25l.63-.37a.85.85,0,0,1,.31-.13s.11,0,.18.16A17.57,17.57,0,0,0,1205.42,110.15Zm3.08-21.57a.6.6,0,0,1-.08.24,2.25,2.25,0,0,0-.1.23,20.55,20.55,0,0,0-.11,3.12V100l0,3.81a.2.2,0,0,1-.23.23h-1.33a.21.21,0,0,1-.24-.23l.06-3.81V92.2a28.33,28.33,0,0,0-.2-4,12.4,12.4,0,0,1,1.84.15C1208.39,88.33,1208.5,88.43,1208.5,88.58Zm4.76-2.25a1.7,1.7,0,0,1-.19.57,12,12,0,0,0-.15,2.61v14.91l.06,4.52a2.81,2.81,0,0,1-.91,2.41,5,5,0,0,1-2.84.54h-.57a1,1,0,0,1-.56-.1,1.21,1.21,0,0,1-.19-.5,3.62,3.62,0,0,0-.54-1.32,22.61,22.61,0,0,0,2.27.12,1.23,1.23,0,0,0,1.51-1.48V89.54a22.22,22.22,0,0,0-.21-3.64q1.14,0,2,.15C1213.14,86.09,1213.26,86.18,1213.26,86.33Z"/><path d="M1217.55,84.2a21.69,21.69,0,0,1,5,7.21,19.9,19.9,0,0,1,1.32,7.4,19.49,19.49,0,0,1-1.74,8.35,22.42,22.42,0,0,1-4.53,6.25l-.86-.72a22.64,22.64,0,0,0,4.14-7.07,23.13,23.13,0,0,0-.33-14.52,23.77,23.77,0,0,0-3.81-6.18Z"/><path class="cls-2" d="M450.11,141.49a23,23,0,1,1-11.6,3.15A22.54,22.54,0,0,1,450.11,141.49Zm0,1.6A20.82,20.82,0,0,0,439.34,146a21.25,21.25,0,0,0-7.67,7.66,21.22,21.22,0,0,0,0,21.55,21.28,21.28,0,0,0,7.67,7.67,21.2,21.2,0,0,0,21.54,0,21.36,21.36,0,0,0,7.67-7.67,21.22,21.22,0,0,0,0-21.55,21.33,21.33,0,0,0-7.67-7.66A20.82,20.82,0,0,0,450.11,143.09Zm2.49,7.08V175.5h5.48v2.85H443.31V175.5h5.83V153.86a31.5,31.5,0,0,1-5.83,2.8l-.56-3a29.77,29.77,0,0,0,6.91-3.45Z"/><path class="cls-2" d="M450.11,192.49a23,23,0,1,1-11.6,3.15A22.54,22.54,0,0,1,450.11,192.49Zm0,1.6A20.82,20.82,0,0,0,439.34,197a21.28,21.28,0,0,0-7.67,7.67,21.22,21.22,0,0,0,0,21.55,21.25,21.25,0,0,0,7.67,7.66,21.2,21.2,0,0,0,21.54,0,21.33,21.33,0,0,0,7.67-7.66,21.22,21.22,0,0,0,0-21.55,21.36,21.36,0,0,0-7.67-7.67A20.82,20.82,0,0,0,450.11,194.09Zm-8.77,14.39a8.93,8.93,0,0,1,3.31-5.88,9.19,9.19,0,0,1,5.6-1.67,8.91,8.91,0,0,1,6.35,2.21,6.81,6.81,0,0,1,2.12,5.16,7.76,7.76,0,0,1-1.53,4.68,32.79,32.79,0,0,1-4.68,4.77,56.55,56.55,0,0,0-5.22,4.92,17,17,0,0,0-2.52,3.69h14v2.94H441.05v-2.65q2.47-5.24,8.75-10.64a27.52,27.52,0,0,0,4.33-4.58,5.79,5.79,0,0,0,.87-3.13,4.22,4.22,0,0,0-1.46-3.44,5,5,0,0,0-3.29-1c-3.23,0-5,1.82-5.43,5.48Z"/><path class="cls-2" d="M450.11,244.49a23,23,0,1,1-11.6,3.15A22.54,22.54,0,0,1,450.11,244.49Zm0,1.6A20.82,20.82,0,0,0,439.34,249a21.36,21.36,0,0,0-7.67,7.67,21.22,21.22,0,0,0,0,21.55,21.36,21.36,0,0,0,7.67,7.67,21.2,21.2,0,0,0,21.54,0,21.44,21.44,0,0,0,7.67-7.67,21.22,21.22,0,0,0,0-21.55,21.44,21.44,0,0,0-7.67-7.67A20.82,20.82,0,0,0,450.11,246.09Zm-8.87,12.61q2-5.64,8.73-5.65a9,9,0,0,1,6.28,2.15A6.18,6.18,0,0,1,458.3,260a6,6,0,0,1-1.7,4.4,7.4,7.4,0,0,1-3.9,2v.38a7.8,7.8,0,0,1,4.87,2.66,6.76,6.76,0,0,1,1.41,4.37,7.44,7.44,0,0,1-2.82,6.14,9.52,9.52,0,0,1-6.15,1.95q-7.17,0-9.29-5.64l3.41-1.2c.95,2.7,2.92,4,5.93,4A5,5,0,0,0,454,277.4a5.28,5.28,0,0,0,1.25-3.62q0-5.53-6.49-5.53h-2.33v-3h2c4.14,0,6.21-1.67,6.21-5a4.07,4.07,0,0,0-1.5-3.41,5.75,5.75,0,0,0-8.66,3Z"/><path class="cls-2" d="M450.11,295.49a23,23,0,1,1-11.6,3.16A22.55,22.55,0,0,1,450.11,295.49Zm0,1.6a20.83,20.83,0,0,0-10.77,3,21.25,21.25,0,0,0-7.67,7.66,21.22,21.22,0,0,0,0,21.55,21.28,21.28,0,0,0,7.67,7.67,21.2,21.2,0,0,0,21.54,0,21.36,21.36,0,0,0,7.67-7.67,21.22,21.22,0,0,0,0-21.55,21.33,21.33,0,0,0-7.67-7.66A20.83,20.83,0,0,0,450.11,297.09Zm4.47,7.13v18.92h4.19v2.75h-4.19v6.49h-3.22v-6.49H439.55v-2.61l10.25-19.06Zm-3.22,18.92v-9.3c0-.94,0-2.18.09-3.74s.08-2.66.09-3.34H451q-.37.75-1,2.1c-.86,1.78-1.53,3.16-2,4.11l-5.31,10.17Z"/><path class="cls-2" d="M450.11,346.5a23,23,0,1,1-11.6,3.15A22.54,22.54,0,0,1,450.11,346.5Zm0,1.6A20.82,20.82,0,0,0,439.34,351a21.28,21.28,0,0,0-7.67,7.67,21.2,21.2,0,0,0,0,21.54,21.2,21.2,0,0,0,7.67,7.67,21.2,21.2,0,0,0,21.54,0,21.28,21.28,0,0,0,7.67-7.67,21.2,21.2,0,0,0,0-21.54,21.36,21.36,0,0,0-7.67-7.67A20.82,20.82,0,0,0,450.11,348.1Zm7.81,7.41v2.94h-12l-.4,6.56c-.08,1.52-.14,2.49-.19,2.92a6,6,0,0,1,5.51-2.82A7.59,7.59,0,0,1,457,368a9.82,9.82,0,0,1,2.09,6.43,9.38,9.38,0,0,1-2.92,7.31,8.72,8.72,0,0,1-6.14,2.26q-6.68,0-8.77-5.57l3.53-1.25a5,5,0,0,0,5.19,3.93,4.84,4.84,0,0,0,4.15-2,7.62,7.62,0,0,0,1.24-4.52,7.25,7.25,0,0,0-1.53-5,4.63,4.63,0,0,0-3.62-1.48A5.31,5.31,0,0,0,447,369.1a5.8,5.8,0,0,0-1.81,2.4l-3-.37.82-15.62Z"/><path class="cls-2" d="M450.11,397.5a23,23,0,1,1-11.6,3.15A22.54,22.54,0,0,1,450.11,397.5Zm0,1.6A20.82,20.82,0,0,0,439.34,402a21.36,21.36,0,0,0-7.67,7.67,21.22,21.22,0,0,0,0,21.55,21.36,21.36,0,0,0,7.67,7.67,21.2,21.2,0,0,0,21.54,0,21.44,21.44,0,0,0,7.67-7.67,21.22,21.22,0,0,0,0-21.55,21.44,21.44,0,0,0-7.67-7.67A20.82,20.82,0,0,0,450.11,399.1Zm8.42,11-3.27,1.51a4,4,0,0,0-3.95-2.71,5.2,5.2,0,0,0-5,3.32,21,21,0,0,0-1.44,8,7.41,7.41,0,0,1,6.68-3.88,7,7,0,0,1,5.79,2.75,9.77,9.77,0,0,1,2,6.3,9.47,9.47,0,0,1-2.83,7.27,8.3,8.3,0,0,1-5.9,2.21,7.86,7.86,0,0,1-6.92-3.52q-2.32-3.37-2.32-9.58,0-15.66,10.06-15.67C454.88,406.06,457.26,407.4,458.53,410.06ZM445,423.33q0,4.64,1.74,6.87a4.62,4.62,0,0,0,3.88,1.83,4.45,4.45,0,0,0,3.93-2,8.18,8.18,0,0,0,1.17-4.66,6.92,6.92,0,0,0-1.48-4.82,4.35,4.35,0,0,0-3.43-1.39Q447.05,419.19,445,423.33Z"/><polygon class="cls-1" points="80.62 164.56 155.62 189.91 155.62 139.21 80.62 164.56"/><polygon points="79.67 164.56 109.97 174.81 109.97 154.31 79.67 164.56"/><polygon class="cls-1" points="80.62 215.64 155.62 240.99 155.62 190.29 80.62 215.64"/><polygon points="79.67 215.64 109.97 225.88 109.97 205.39 79.67 215.64"/><polygon class="cls-1" points="80.62 266.95 155.62 292.3 155.62 241.6 80.62 266.95"/><polygon points="79.67 266.95 109.97 277.2 109.97 256.71 79.67 266.95"/><polygon class="cls-1" points="80.62 318.03 155.62 343.38 155.62 292.68 80.62 318.03"/><polygon points="79.67 318.03 109.97 328.28 109.97 307.79 79.67 318.03"/><polygon class="cls-1" points="80.62 369 155.62 394.35 155.62 343.65 80.62 369"/><polygon points="79.67 369 109.97 379.25 109.97 358.76 79.67 369"/><polygon class="cls-1" points="80.62 419.89 155.62 445.24 155.62 394.54 80.62 419.89"/><polygon points="79.67 419.89 109.97 430.14 109.97 409.65 79.67 419.89"/></svg>