<svg id="レイヤー_1" data-name="レイヤー 1" xmlns="http://www.w3.org/2000/svg" xmlns:xlink="http://www.w3.org/1999/xlink" viewBox="0 0 1295.59 508.35"><defs><style>.cls-1,.cls-2,.cls-5{fill:none;}.cls-2,.cls-5{stroke:#000;}.cls-2{stroke-miterlimit:10;}.cls-3{fill:#e5002c;}.cls-4{clip-path:url(#clip-path);}.cls-5{stroke-linecap:round;stroke-linejoin:round;}</style><clipPath id="clip-path"><rect class="cls-1" x="1072.18" y="112.21" width="164.1" height="396.14"/></clipPath></defs><path class="cls-2" d="M67.6,387.43v22.48h68.63s.37,13.3,23.45,21.42c0,0,16.24,17.76-12.68,10.65v6.6s9.59,17.5,222.23,13.82c0,0,71.37-4.41,76.52-7.36s-6.62-3.68-6.62-3.68-38.27-25.75-74.32-.73c0,0-111.1,2.94-126.55,0s-28-7.36-18.4-14c0,0,159.67,0,286.22-2.21s253.85,7.36,376.72,2.94v-.11l44.85-5.52a7.09,7.09,0,0,0,6.05-3.49c56.62-8.13,75.48-16.61,75.48-16.61v-3.82h8.63c18.09-5.29,19.61-5.49,19.31-7.83s-20.12-7.31-20.12-7.31h-7.82V389c-21.26-6.81-61.24-11.84-75.11-13.45a9,9,0,0,0-8.42-5s-43.73-3.83-44.14-3.74c-27.63-.33-291.46-3.21-339.66,3.52-50.88,7.1-177.24-19.57-410.35,5.28l-2.36,11.83Z"/><path class="cls-2" d="M67.6,220.27V197.79h68.63s.37-13.3,23.45-21.42c0,0,16.24-17.76-12.68-10.65v-6.6s9.59-17.5,222.23-13.82c0,0,71.37,4.41,76.52,7.36s-6.62,3.68-6.62,3.68-38.27,25.75-74.32.73c0,0-111.1-2.94-126.55,0s-28,7.36-18.4,14c0,0,159.67,0,286.22,2.21s253.85-7.36,376.72-2.94v.11L927.65,176a7.09,7.09,0,0,1,6.05,3.49c56.62,8.13,75.48,16.61,75.48,16.61v3.82h8.63c18.09,5.29,19.61,5.49,19.31,7.83S1017,215,1017,215h-7.82v3.71c-21.26,6.81-61.24,11.84-75.11,13.45a9,9,0,0,1-8.42,5s-43.73,3.83-44.14,3.74c-27.63.33-291.46,3.21-339.66-3.52C491,230.28,364.61,257,131.5,232.1l-2.36-11.83Z"/><path d="M100.82,105c0,.19-.09.28-.26.28l-5.12-.07H81.28l-5.08.07c-.18,0-.27-.09-.27-.28v-1.67a.25.25,0,0,1,.27-.28l5.08.07h5.57V93H79.22a35.63,35.63,0,0,1-7.63,10.65c-.25.24-.43.35-.55.35s-.25-.14-.51-.42a4.55,4.55,0,0,0-1.21-1.12q7.77-6.18,10.87-19.08H75.72l-4.85.07c-.2,0-.3-.09-.3-.28v-1.7c0-.19.1-.28.3-.28l4.85.07h4.94c.23-1.26.4-2.21.49-2.85A16.77,16.77,0,0,0,81.33,76c0-.36,0-.69,0-1,1.06.13,1.83.23,2.32.32s.51.2.51.4a1.17,1.17,0,0,1-.18.56,5.92,5.92,0,0,0-.54,2c-.15,1.09-.33,2.1-.53,3H95.57l4.81-.07a.24.24,0,0,1,.28.28v1.7a.24.24,0,0,1-.28.28l-4.81-.07H82.45a49.31,49.31,0,0,1-2.33,7.56H92.79l4.82-.07a.26.26,0,0,1,.29.28v1.64c0,.19-.1.28-.29.28L92.79,93H89.12v10.07h6.32l5.12-.07c.17,0,.26.1.26.28Z"/><path d="M121.6,87.23c0,.2-.09.3-.28.3L117,87.44h-1.11a34.18,34.18,0,0,0,5.64,7.76,5.91,5.91,0,0,0-1,1.4c-.13.26-.24.39-.34.39s-.21-.11-.38-.32A32.54,32.54,0,0,1,115.27,89q0,6.17.16,13,0,1.62.09,3.84c0,.7,0,1.09,0,1.16s-.09.3-.28.3h-1.81c-.19,0-.28-.1-.28-.3,0,0,0-.95.07-2.82q.23-8.17.25-15.13a45.44,45.44,0,0,1-6.81,11.76c-.16.24-.3.37-.42.37s-.23-.14-.33-.41a4,4,0,0,0-1-1.47,40.91,40.91,0,0,0,7.73-11.82h-2.51l-4.29.09q-.24,0-.24-.3v-1.4c0-.19.08-.28.24-.28l4.29.07h3.13v-5.7q-2.64.77-5.22,1.27l-.48,0c-.18,0-.37-.19-.56-.56a4.25,4.25,0,0,0-.88-1.08A48.3,48.3,0,0,0,112.93,78a35.52,35.52,0,0,0,4.35-1.6,7,7,0,0,0,1.63-1,15,15,0,0,1,1.55,1.26.9.9,0,0,1,.31.62c0,.17-.19.28-.58.31a6.72,6.72,0,0,0-1.54.48c-.89.37-2,.77-3.2,1.19v6.37H117l4.29-.07a.24.24,0,0,1,.28.28Zm5.22-8.52s-.06.21-.18.56A24.41,24.41,0,0,0,126.5,83v9.79l.07,4.66a.24.24,0,0,1-.28.28h-1.7a.24.24,0,0,1-.28-.28l.07-4.66V83.05a31.55,31.55,0,0,0-.25-4.89q1.26.06,2.34.21C126.7,78.41,126.82,78.52,126.82,78.71Zm8.72-2.6a2.33,2.33,0,0,1-.23.68,13.48,13.48,0,0,0-.18,3.13V97.6l0,5.44a3.22,3.22,0,0,1-1,2.81,3.7,3.7,0,0,1-1.65.6,30.34,30.34,0,0,1-3.29.12,1.08,1.08,0,0,1-.65-.12,2,2,0,0,1-.24-.64,5.15,5.15,0,0,0-.76-1.67,22.81,22.81,0,0,0,3.57.23,2.1,2.1,0,0,0,1.48-.37,2,2,0,0,0,.35-1.37V80a27.15,27.15,0,0,0-.25-4.4,20.36,20.36,0,0,1,2.41.23C135.39,75.83,135.54,75.93,135.54,76.11Z"/><path d="M153.94,81.43l-.45-1.35L153,78.66a7,7,0,0,0-1.19-2.31,17.3,17.3,0,0,1,2.81-.24c.41,0,.61.14.61.44l-.08.56a8.24,8.24,0,0,0,.28,1.51c.1.38.23.81.38,1.32s.26.84.32,1a71.06,71.06,0,0,0,8-2.08l.21,0c.09,0,.14.07.18.19a10.94,10.94,0,0,1,.33,1.34v.11a.37.37,0,0,1-.33.38q-3.17,1-7.73,2a31.42,31.42,0,0,0,1.68,4.06,41.26,41.26,0,0,0,7.16-2.05.64.64,0,0,1,.24,0c.11,0,.2.07.27.22a8.55,8.55,0,0,1,.31,1.38.36.36,0,0,1,0,.14.38.38,0,0,1-.3.36q-3.36,1.11-6.84,1.89a24.41,24.41,0,0,0,5.63,7.34.67.67,0,0,1,.21.37.63.63,0,0,1-.07.25,6.29,6.29,0,0,1-.86,1.4q-.26.27-.42.27a.7.7,0,0,1-.39-.19A12.86,12.86,0,0,0,160.85,97,19.75,19.75,0,0,0,154,95.88c-4.1,0-6.15,1.19-6.15,3.55q0,3.78,9.1,3.78c.87,0,2.09-.07,3.68-.21h.07c.15,0,.22.09.22.26a.76.76,0,0,1,0,.15,9,9,0,0,1-.39,1.7.52.52,0,0,1-.47.44c-1.25.09-2.3.14-3.17.14q-11.34,0-11.34-6.08A4.8,4.8,0,0,1,148,95.27a11.1,11.1,0,0,1,5.84-1.34,17.35,17.35,0,0,1,7.45,1.32,31.62,31.62,0,0,1-4.08-6,73.75,73.75,0,0,1-10.4,1.18c-.2,0-.34-.12-.43-.37a7.34,7.34,0,0,1-.33-1.69,64.59,64.59,0,0,0,10.27-1.07c-.61-1.29-1.2-2.65-1.76-4.08a63.53,63.53,0,0,1-9.48,1.06.44.44,0,0,1-.47-.36c-.09-.38-.2-.94-.32-1.67A68.65,68.65,0,0,0,153.94,81.43Z"/><path d="M220,82.12,228,82a3.69,3.69,0,0,0,1.79-.39.51.51,0,0,1,.32-.1,1.32,1.32,0,0,1,.63.24,9.2,9.2,0,0,1,1.44,1.18.9.9,0,0,1,.3.6.7.7,0,0,1-.23.49,4,4,0,0,0-1,1.25,48.2,48.2,0,0,1-6.94,11.23,42.72,42.72,0,0,1-11.23,9.21.59.59,0,0,1-.32.11.73.73,0,0,1-.47-.21,5.14,5.14,0,0,0-2-1,42.78,42.78,0,0,0,7-4.61,45.87,45.87,0,0,0,4.87-4.83,42.77,42.77,0,0,0,6.77-11l-10.37.29a58.33,58.33,0,0,1-7.12,7.7,1,1,0,0,1-.6.28,1,1,0,0,1-.53-.21,4.36,4.36,0,0,0-1.82-.76A40.31,40.31,0,0,0,218,80.92a13.57,13.57,0,0,0,2-4.81,8.08,8.08,0,0,1,2.71,1.26.59.59,0,0,1,.28.48.53.53,0,0,1-.28.45,3.86,3.86,0,0,0-1.09,1.23C220.64,81,220.1,81.9,220,82.12Z"/><path d="M243.43,77.58a18.66,18.66,0,0,1,2.94.58.51.51,0,0,1,.4.51.91.91,0,0,1-.07.35,11,11,0,0,0-.37,3.78v6.09c0,1.6,0,3.19.11,4.76,0,.37-.18.56-.53.56h-1.69q-.45,0-.45-.42v-.11c0-2.14.07-3.79.07-4.93v-6A27.56,27.56,0,0,0,243.43,77.58Zm1.66,26.51q5.64-1.65,8.4-4.94,2.88-3.51,2.88-9.65V83.31A33.22,33.22,0,0,0,256,77a17.41,17.41,0,0,1,3.06.58.48.48,0,0,1,.36.48.9.9,0,0,1-.12.42,17,17,0,0,0-.35,4.73v6.08q0,7-3.13,11a17.68,17.68,0,0,1-7.89,5.29,1.32,1.32,0,0,1-.42.09.91.91,0,0,1-.58-.26A6.66,6.66,0,0,0,245.09,104.09Z"/><path d="M269.52,87.62c.68-.37,1.22-.66,1.62-.86a.56.56,0,0,1,.24-.07.58.58,0,0,1,.41.24,21.77,21.77,0,0,1,2.95,5,1.05,1.05,0,0,1,.09.32q0,.15-.27.33a8.91,8.91,0,0,1-1.37.65.5.5,0,0,1-.23,0c-.15,0-.26-.11-.35-.35A22,22,0,0,0,269.52,87.62Zm18.18-1.93a8.43,8.43,0,0,1,2.67,1.12.57.57,0,0,1,.26.44.6.6,0,0,1-.23.42,5.69,5.69,0,0,0-1,1.73,42.76,42.76,0,0,1-5.3,9.28,30.88,30.88,0,0,1-7.27,6.83.85.85,0,0,1-.48.18.4.4,0,0,1-.31-.14,5.05,5.05,0,0,0-1.89-.88,33.55,33.55,0,0,0,8.07-7.17,32.51,32.51,0,0,0,4.89-8.86A14.76,14.76,0,0,0,287.7,85.69ZM276.53,86c.86-.46,1.42-.74,1.67-.84a.53.53,0,0,1,.23-.06c.14,0,.27.1.39.29a20.24,20.24,0,0,1,2.69,5,.63.63,0,0,1,.05.21c0,.14-.1.26-.3.37a11.61,11.61,0,0,1-1.44.68.41.41,0,0,1-.16,0c-.13,0-.24-.12-.35-.37A22.17,22.17,0,0,0,276.53,86Z"/><path d="M298.65,80.87q3,.28,6.9.28H318.3a4,4,0,0,0,1.81-.31.72.72,0,0,1,.42-.13.88.88,0,0,1,.51.16,8.41,8.41,0,0,1,1.62,1.48.79.79,0,0,1,.19.51.76.76,0,0,1-.3.59,3.57,3.57,0,0,0-.79,1.23,37.59,37.59,0,0,1-7.06,11.8A40.58,40.58,0,0,1,304,105.15a1.12,1.12,0,0,1-.62.21.81.81,0,0,1-.6-.28,5.88,5.88,0,0,0-1.88-1.22A37.9,37.9,0,0,0,308,99.4,38.88,38.88,0,0,0,312.55,95a33.13,33.13,0,0,0,6.77-11.52h-13.8c-2.09,0-4.1.08-6,.23h-.12c-.29,0-.47-.19-.53-.58,0-.09,0-.48-.09-1.16C298.69,81.45,298.66,81.09,298.65,80.87Zm26.75-6.82A3.62,3.62,0,1,1,323,75,3.52,3.52,0,0,1,325.4,74.05Zm0,1.37a2.2,2.2,0,0,0-1.69.74,2.24,2.24,0,0,0-.58,1.53,2.2,2.2,0,0,0,.74,1.69,2.24,2.24,0,0,0,1.53.58,2.2,2.2,0,0,0,1.69-.74,2.28,2.28,0,0,0,.58-1.53,2.25,2.25,0,0,0-2.27-2.27Z"/><path d="M363.88,104.88a.25.25,0,0,1-.28.28l-4.77-.07H338.14l-4.76.07a.24.24,0,0,1-.28-.28V103a.24.24,0,0,1,.28-.28l4.76.07h8.14v-22a39.78,39.78,0,0,0-.23-5.19,20.9,20.9,0,0,1,2.54.22c.31,0,.47.15.47.31a2.11,2.11,0,0,1-.19.69,14,14,0,0,0-.25,3.5v6.8h7.16l4.74-.07c.2,0,.3.09.3.28v1.84a.26.26,0,0,1-.3.29l-4.74-.07h-7.16v13.43h10.21l4.77-.07a.25.25,0,0,1,.28.28Z"/><path d="M398.45,81.71l-.07,5.7V97.53l0,5.75a3,3,0,0,1-.86,2.38c-.53.43-2.05.65-4.57.65-.38,0-.59,0-.65-.11a1.42,1.42,0,0,1-.21-.58,6,6,0,0,0-.72-1.58c1.26.09,2.25.14,2.95.14a2.27,2.27,0,0,0,1.39-.32,1.23,1.23,0,0,0,.37-1V83.49H372.83V101l.07,5.3a.25.25,0,0,1-.28.29H370.8a.25.25,0,0,1-.28-.29l.07-5.47V87.3l-.07-5.59a.25.25,0,0,1,.28-.28l5.08.07h3.75A46.09,46.09,0,0,0,381.9,77a9.54,9.54,0,0,0,.61-2.06,18.18,18.18,0,0,1,2.3.58c.24.11.36.24.36.41a.58.58,0,0,1-.29.45,2.07,2.07,0,0,0-.54.72,48.3,48.3,0,0,1-2.27,4.36h11l5.05-.07C398.35,81.43,398.45,81.53,398.45,81.71Zm-7.87,18.62c0,.19-.1.28-.3.28h-1.51c-.21,0-.32-.09-.32-.28V98.78h-8.31v1.8a.26.26,0,0,1-.28.29h-1.51a.26.26,0,0,1-.3-.29l.07-5.82V92.05l-.07-3.64a.24.24,0,0,1,.28-.28l3.79.07h4.38l3.8-.07a.24.24,0,0,1,.28.28l-.07,3.18v3Zm-2.13-3.46V90.12h-8.31v6.75Z"/><path d="M416.81,81.43c-.1-.27-.25-.72-.46-1.35l-.48-1.42a7,7,0,0,0-1.19-2.31,17.3,17.3,0,0,1,2.81-.24c.41,0,.62.14.62.44l-.09.56a8.24,8.24,0,0,0,.28,1.51c.11.38.23.81.39,1.32s.26.84.31,1a71.88,71.88,0,0,0,8-2.08.76.76,0,0,1,.21,0c.08,0,.14.07.17.19a12.91,12.91,0,0,1,.34,1.34v.11c0,.2-.11.32-.34.38-2.11.66-4.68,1.33-7.73,2a30.2,30.2,0,0,0,1.69,4.06,41.39,41.39,0,0,0,7.15-2.05.72.72,0,0,1,.25,0c.1,0,.19.07.26.22a9.91,9.91,0,0,1,.32,1.38.71.71,0,0,1,0,.14.38.38,0,0,1-.29.36q-3.36,1.11-6.84,1.89a24.39,24.39,0,0,0,5.62,7.34.67.67,0,0,1,.21.37.63.63,0,0,1-.07.25,5.94,5.94,0,0,1-.86,1.4.64.64,0,0,1-.42.27.73.73,0,0,1-.39-.19A12.31,12.31,0,0,0,423.71,97a19.75,19.75,0,0,0-6.87-1.07c-4.1,0-6.15,1.19-6.15,3.55q0,3.78,9.1,3.78c.87,0,2.1-.07,3.68-.21h.07c.15,0,.23.09.23.26a.77.77,0,0,1,0,.15,8.32,8.32,0,0,1-.39,1.7.52.52,0,0,1-.47.44c-1.24.09-2.3.14-3.17.14q-11.33,0-11.33-6.08a4.78,4.78,0,0,1,2.48-4.34,11.06,11.06,0,0,1,5.83-1.34,17.32,17.32,0,0,1,7.45,1.32,31.62,31.62,0,0,1-4.07-6,73.88,73.88,0,0,1-10.41,1.18c-.2,0-.34-.12-.42-.37a6.84,6.84,0,0,1-.34-1.69,64.59,64.59,0,0,0,10.27-1.07c-.61-1.29-1.2-2.65-1.76-4.08A63.54,63.54,0,0,1,408,84.32a.44.44,0,0,1-.48-.36c-.09-.38-.2-.94-.31-1.67A68.78,68.78,0,0,0,416.81,81.43Z"/><path d="M100.82,327.57c0,.19-.09.28-.26.28l-5.12-.07H81.28l-5.08.07c-.18,0-.27-.09-.27-.28V325.9a.25.25,0,0,1,.27-.28l5.08.07h5.57V315.62H79.22a35.63,35.63,0,0,1-7.63,10.65c-.25.24-.43.35-.55.35s-.25-.14-.51-.42a4.55,4.55,0,0,0-1.21-1.12Q77.09,318.9,80.19,306H75.72l-4.85.07a.26.26,0,0,1-.3-.29v-1.7c0-.19.1-.28.3-.28l4.85.07h4.94c.23-1.26.4-2.2.49-2.85a16.77,16.77,0,0,0,.18-2.43c0-.36,0-.69,0-1,1.06.13,1.83.23,2.32.32s.51.2.51.4a1.14,1.14,0,0,1-.18.56,5.92,5.92,0,0,0-.54,2c-.15,1.09-.33,2.1-.53,3H95.57l4.81-.07a.24.24,0,0,1,.28.28v1.7c0,.19-.09.29-.28.29L95.57,306H82.45a48.83,48.83,0,0,1-2.33,7.55H92.79l4.82-.07a.26.26,0,0,1,.29.28v1.64c0,.19-.1.28-.29.28l-4.82-.07H89.12v10.07h6.32l5.12-.07c.17,0,.26.1.26.28Z"/><path d="M121.6,309.85c0,.2-.09.3-.28.3l-4.29-.08h-1.11a34.34,34.34,0,0,0,5.64,7.75,5.91,5.91,0,0,0-1,1.4c-.13.26-.24.39-.34.39s-.21-.1-.38-.32a32.34,32.34,0,0,1-4.61-7.71q0,6.17.16,13c0,1.07,0,2.35.09,3.83,0,.7,0,1.09,0,1.16s-.09.3-.28.3h-1.81c-.19,0-.28-.1-.28-.3,0,0,0-.95.07-2.82q.23-8.16.25-15.13a45.44,45.44,0,0,1-6.81,11.76c-.16.25-.3.37-.42.37s-.23-.14-.33-.41a4,4,0,0,0-1-1.47,41,41,0,0,0,7.73-11.81h-2.51l-4.29.08q-.24,0-.24-.3v-1.4c0-.19.08-.28.24-.28l4.29.07h3.13v-5.7q-2.64.76-5.22,1.27l-.48.05c-.18,0-.37-.19-.56-.56a4,4,0,0,0-.88-1.07,49.87,49.87,0,0,0,6.75-1.57,33.92,33.92,0,0,0,4.35-1.6,7,7,0,0,0,1.63-1.05,16.47,16.47,0,0,1,1.55,1.26.9.9,0,0,1,.31.62c0,.17-.19.28-.58.31a6.72,6.72,0,0,0-1.54.48c-.89.37-2,.77-3.2,1.19v6.37H117l4.29-.07a.24.24,0,0,1,.28.28Zm5.22-8.52s-.06.21-.18.56a24.41,24.41,0,0,0-.14,3.71v9.79l.07,4.66a.24.24,0,0,1-.28.28h-1.7a.24.24,0,0,1-.28-.28l.07-4.66v-9.72a31.55,31.55,0,0,0-.25-4.89,22.74,22.74,0,0,1,2.34.22C126.7,301,126.82,301.14,126.82,301.33Zm8.72-2.6a2.24,2.24,0,0,1-.23.68,13.48,13.48,0,0,0-.18,3.13v17.69l0,5.43a3.22,3.22,0,0,1-1,2.81,3.59,3.59,0,0,1-1.65.6,30.34,30.34,0,0,1-3.29.12,1.08,1.08,0,0,1-.65-.12,2,2,0,0,1-.24-.64,5.15,5.15,0,0,0-.76-1.67,22.81,22.81,0,0,0,3.57.23,2.1,2.1,0,0,0,1.48-.37,2,2,0,0,0,.35-1.37V302.58a27.15,27.15,0,0,0-.25-4.4,20.36,20.36,0,0,1,2.41.23C135.39,298.45,135.54,298.55,135.54,298.73Z"/><path d="M153.94,304.05l-.45-1.35-.48-1.42a7.09,7.09,0,0,0-1.19-2.31,17.3,17.3,0,0,1,2.81-.24c.41,0,.61.14.61.44l-.08.56a8.24,8.24,0,0,0,.28,1.51c.1.38.23.82.38,1.32s.26.84.32,1a73.52,73.52,0,0,0,8-2.07.69.69,0,0,1,.21-.06c.09,0,.14.07.18.2a10.3,10.3,0,0,1,.33,1.33v.11a.37.37,0,0,1-.33.38c-2.11.66-4.69,1.33-7.73,2a32.63,32.63,0,0,0,1.68,4.06,42.13,42.13,0,0,0,7.16-2.06.64.64,0,0,1,.24-.05c.11,0,.2.07.27.23a8.45,8.45,0,0,1,.31,1.37.36.36,0,0,1,0,.14.39.39,0,0,1-.3.37q-3.36,1.1-6.84,1.88a24.41,24.41,0,0,0,5.63,7.34.67.67,0,0,1,.21.37.63.63,0,0,1-.07.25,6.59,6.59,0,0,1-.86,1.41.71.71,0,0,1-.42.26.63.63,0,0,1-.39-.19,12.38,12.38,0,0,0-2.55-1.3A19.5,19.5,0,0,0,154,318.5c-4.1,0-6.15,1.19-6.15,3.55q0,3.78,9.1,3.78c.87,0,2.09-.07,3.68-.21h.07c.15,0,.22.09.22.27a.71.71,0,0,1,0,.14,9,9,0,0,1-.39,1.7.52.52,0,0,1-.47.44c-1.25.09-2.3.14-3.17.14q-11.34,0-11.34-6.08a4.81,4.81,0,0,1,2.48-4.34,11.1,11.1,0,0,1,5.84-1.34,17.35,17.35,0,0,1,7.45,1.32,31.62,31.62,0,0,1-4.08-6,72.3,72.3,0,0,1-10.4,1.18c-.2,0-.34-.12-.43-.37a7.34,7.34,0,0,1-.33-1.69A64.59,64.59,0,0,0,156.32,310c-.61-1.29-1.2-2.65-1.76-4.08a63.53,63.53,0,0,1-9.48,1.06.44.44,0,0,1-.47-.35c-.09-.39-.2-.95-.32-1.67A70.34,70.34,0,0,0,153.94,304.05Z"/><path d="M220,304.74l8.07-.14a3.69,3.69,0,0,0,1.79-.39.51.51,0,0,1,.32-.1,1.32,1.32,0,0,1,.63.24,9.2,9.2,0,0,1,1.44,1.18.9.9,0,0,1,.3.6.7.7,0,0,1-.23.49,4,4,0,0,0-1,1.25,48.2,48.2,0,0,1-6.94,11.23,42.72,42.72,0,0,1-11.23,9.21.59.59,0,0,1-.32.11.73.73,0,0,1-.47-.21,5.14,5.14,0,0,0-2-1,42.78,42.78,0,0,0,7-4.61,45.87,45.87,0,0,0,4.87-4.83,42.87,42.87,0,0,0,6.77-11l-10.37.28a57.69,57.69,0,0,1-7.12,7.7,1,1,0,0,1-.6.28,1,1,0,0,1-.53-.21,4.36,4.36,0,0,0-1.82-.76,40.31,40.31,0,0,0,9.4-10.48,13.49,13.49,0,0,0,2-4.81,8.08,8.08,0,0,1,2.71,1.26.59.59,0,0,1,.28.48.54.54,0,0,1-.28.46,3.65,3.65,0,0,0-1.09,1.23Q220.18,304.41,220,304.74Z"/><path d="M243.43,300.2a18.66,18.66,0,0,1,2.94.58.51.51,0,0,1,.4.51,1,1,0,0,1-.07.36,10.94,10.94,0,0,0-.37,3.78v6.08c0,1.6,0,3.19.11,4.76,0,.38-.18.56-.53.56h-1.69q-.45,0-.45-.42v-.1c0-2.15.07-3.8.07-4.94v-5.94A27.6,27.6,0,0,0,243.43,300.2Zm1.66,26.51q5.64-1.65,8.4-4.94,2.88-3.51,2.88-9.65v-6.19a33.22,33.22,0,0,0-.4-6.31,17.41,17.41,0,0,1,3.06.58.48.48,0,0,1,.36.48.9.9,0,0,1-.12.42,17,17,0,0,0-.35,4.73v6.08q0,7-3.13,11a17.59,17.59,0,0,1-7.89,5.29,1.32,1.32,0,0,1-.42.09.91.91,0,0,1-.58-.26A6.66,6.66,0,0,0,245.09,326.71Z"/><path d="M269.52,310.24c.68-.37,1.22-.66,1.62-.86a.46.46,0,0,1,.65.18,21.5,21.5,0,0,1,2.95,5,1.05,1.05,0,0,1,.09.32q0,.15-.27.33a8.91,8.91,0,0,1-1.37.65.5.5,0,0,1-.23.05c-.15,0-.26-.11-.35-.35A22,22,0,0,0,269.52,310.24Zm18.18-1.93a8.43,8.43,0,0,1,2.67,1.12.57.57,0,0,1,.26.44.6.6,0,0,1-.23.42,5.69,5.69,0,0,0-1,1.73,42.52,42.52,0,0,1-5.3,9.28,31.14,31.14,0,0,1-7.27,6.84.9.9,0,0,1-.48.17.4.4,0,0,1-.31-.14,5.05,5.05,0,0,0-1.89-.88,33.55,33.55,0,0,0,8.07-7.17,32.36,32.36,0,0,0,4.89-8.86A14.76,14.76,0,0,0,287.7,308.31Zm-11.17.26c.86-.46,1.42-.74,1.67-.84a.5.5,0,0,1,.23-.05.49.49,0,0,1,.39.28,20.24,20.24,0,0,1,2.69,5,.63.63,0,0,1,.05.21c0,.14-.1.26-.3.37a11.61,11.61,0,0,1-1.44.68.41.41,0,0,1-.16,0c-.13,0-.24-.12-.35-.37A22.17,22.17,0,0,0,276.53,308.57Z"/><path d="M298.65,303.49q3,.28,6.9.28H318.3a4,4,0,0,0,1.81-.31.72.72,0,0,1,.42-.13,1,1,0,0,1,.51.16,8.74,8.74,0,0,1,1.62,1.48.76.76,0,0,1-.11,1.11,3.38,3.38,0,0,0-.79,1.23,37.66,37.66,0,0,1-7.06,11.79A40.38,40.38,0,0,1,304,327.77a1.12,1.12,0,0,1-.62.21.81.81,0,0,1-.6-.28,5.88,5.88,0,0,0-1.88-1.22,34.48,34.48,0,0,0,11.64-8.89,33.18,33.18,0,0,0,6.77-11.51h-13.8c-2.09,0-4.1.07-6,.22h-.12c-.29,0-.47-.19-.53-.58,0-.09,0-.48-.09-1.16C298.69,304.07,298.66,303.71,298.65,303.49Zm26.75-6.82a3.62,3.62,0,1,1-2.44.93A3.52,3.52,0,0,1,325.4,296.67Zm0,1.37a2.2,2.2,0,0,0-1.69.74,2.24,2.24,0,0,0-.58,1.53,2.2,2.2,0,0,0,.74,1.69,2.24,2.24,0,0,0,1.53.58,2.2,2.2,0,0,0,1.69-.74,2.24,2.24,0,0,0,.58-1.53,2.2,2.2,0,0,0-.74-1.69A2.24,2.24,0,0,0,325.4,298Z"/><path d="M364,302.37a.25.25,0,0,1-.28.28l-4.72-.07H348.81V308a56.89,56.89,0,0,1,11.27,5.88c.13.08.2.15.2.22a.83.83,0,0,1-.2.39l-.75,1c-.19.27-.33.4-.41.4a.45.45,0,0,1-.24-.1,57.57,57.57,0,0,0-9.87-5.59v13.22l.07,5.74c0,.2-.09.3-.28.3h-1.91c-.19,0-.28-.1-.28-.3l.07-5.74V302.58h-8.6l-4.73.07a.25.25,0,0,1-.28-.28v-1.74a.24.24,0,0,1,.28-.28l4.73.07H359l4.72-.07a.25.25,0,0,1,.28.28Z"/><path d="M398.45,304.34l-.07,5.69v10.13l0,5.74a3,3,0,0,1-.86,2.38c-.53.43-2.05.65-4.57.65-.38,0-.59,0-.65-.11a1.42,1.42,0,0,1-.21-.58,6,6,0,0,0-.72-1.58c1.26.09,2.25.14,2.95.14a2.27,2.27,0,0,0,1.39-.32,1.23,1.23,0,0,0,.37-1V306.11H372.83v17.53l.07,5.29c0,.2-.1.3-.28.3H370.8c-.18,0-.28-.1-.28-.3l.07-5.47V309.93l-.07-5.59a.26.26,0,0,1,.28-.29l5.08.07h3.75a46.09,46.09,0,0,0,2.27-4.46,9.36,9.36,0,0,0,.61-2.06,18.18,18.18,0,0,1,2.3.58c.24.11.36.24.36.41a.58.58,0,0,1-.29.45,2.27,2.27,0,0,0-.54.72,48.3,48.3,0,0,1-2.27,4.36h11l5.05-.07C398.35,304.05,398.45,304.15,398.45,304.34ZM390.58,323c0,.19-.1.28-.3.28h-1.51c-.21,0-.32-.09-.32-.28V321.4h-8.31v1.8c0,.2-.1.3-.28.3h-1.51a.27.27,0,0,1-.3-.3l.07-5.82v-2.71l-.07-3.64a.25.25,0,0,1,.28-.28l3.79.07h4.38l3.8-.07a.25.25,0,0,1,.28.28l-.07,3.18v3Zm-2.13-3.46v-6.75h-8.31v6.75Z"/><path d="M416.81,304.05c-.1-.27-.25-.72-.46-1.35l-.48-1.42a7.09,7.09,0,0,0-1.19-2.31,17.3,17.3,0,0,1,2.81-.24c.41,0,.62.14.62.44l-.09.56a8.24,8.24,0,0,0,.28,1.51c.11.38.23.82.39,1.32s.26.84.31,1a74.39,74.39,0,0,0,8-2.07.57.57,0,0,1,.21-.06c.08,0,.14.07.17.2a12,12,0,0,1,.34,1.33v.11a.37.37,0,0,1-.34.38c-2.11.66-4.68,1.33-7.73,2a31.32,31.32,0,0,0,1.69,4.06,42.27,42.27,0,0,0,7.15-2.06.72.72,0,0,1,.25-.05c.1,0,.19.07.26.23a9.8,9.8,0,0,1,.32,1.37.71.71,0,0,1,0,.14.39.39,0,0,1-.29.37q-3.36,1.1-6.84,1.88a24.39,24.39,0,0,0,5.62,7.34.67.67,0,0,1,.21.37.63.63,0,0,1-.07.25,6.21,6.21,0,0,1-.86,1.41.48.48,0,0,1-.81.07,11.88,11.88,0,0,0-2.55-1.3,19.5,19.5,0,0,0-6.87-1.08c-4.1,0-6.15,1.19-6.15,3.55q0,3.78,9.1,3.78c.87,0,2.1-.07,3.68-.21h.07c.15,0,.23.09.23.27a.78.78,0,0,1,0,.14,8.32,8.32,0,0,1-.39,1.7.52.52,0,0,1-.47.44c-1.24.09-2.3.14-3.17.14q-11.33,0-11.33-6.08a4.79,4.79,0,0,1,2.48-4.34,11.06,11.06,0,0,1,5.83-1.34,17.32,17.32,0,0,1,7.45,1.32,31.62,31.62,0,0,1-4.07-6,72.42,72.42,0,0,1-10.41,1.18c-.2,0-.34-.12-.42-.37a6.84,6.84,0,0,1-.34-1.69A64.59,64.59,0,0,0,419.18,310c-.61-1.29-1.2-2.65-1.76-4.08a63.54,63.54,0,0,1-9.47,1.06.44.44,0,0,1-.48-.35c-.09-.39-.2-.95-.31-1.67A70.48,70.48,0,0,0,416.81,304.05Z"/><rect class="cls-3" x="272.27" y="184.3" width="409.62" height="43.1"/><rect class="cls-3" x="272.27" y="383.22" width="409.62" height="43.1"/><path d="M1085.71,49.53l8.07-.14a3.64,3.64,0,0,0,1.8-.38.51.51,0,0,1,.31-.11,1.25,1.25,0,0,1,.64.25,9.2,9.2,0,0,1,1.44,1.18.9.9,0,0,1,.3.59.72.72,0,0,1-.23.5,3.84,3.84,0,0,0-1,1.24,48.29,48.29,0,0,1-6.95,11.24,42.56,42.56,0,0,1-11.23,9.21.54.54,0,0,1-.31.1.73.73,0,0,1-.48-.21,5.22,5.22,0,0,0-2-1,42.77,42.77,0,0,0,7.05-4.6,48,48,0,0,0,4.87-4.84,42.85,42.85,0,0,0,6.76-11l-10.37.28a57,57,0,0,1-7.12,7.7.91.91,0,0,1-.59.28,1,1,0,0,1-.53-.21,4.47,4.47,0,0,0-1.83-.75,40.52,40.52,0,0,0,9.41-10.48,13.47,13.47,0,0,0,2-4.82,8.26,8.26,0,0,1,2.71,1.27.56.56,0,0,1,.28.47.52.52,0,0,1-.28.46,3.88,3.88,0,0,0-1.09,1.23Q1086,49.2,1085.71,49.53Z"/><path d="M1109.2,45a17.26,17.26,0,0,1,2.93.58.5.5,0,0,1,.41.51,1,1,0,0,1-.07.35,10.76,10.76,0,0,0-.37,3.78V56.3c0,1.61,0,3.2.1,4.77,0,.37-.17.56-.52.56H1110c-.3,0-.46-.14-.46-.42V61.1c0-2.14.07-3.79.07-4.94V50.22A27.67,27.67,0,0,0,1109.2,45Zm1.65,26.51q5.64-1.65,8.4-4.94,2.89-3.52,2.89-9.65V50.73a32.91,32.91,0,0,0-.41-6.31,16.21,16.21,0,0,1,3.06.58.47.47,0,0,1,.37.47,1,1,0,0,1-.12.43c-.24.48-.35,2.05-.35,4.72v6.09q0,7-3.13,11a17.65,17.65,0,0,1-7.9,5.29,1.22,1.22,0,0,1-.42.09.88.88,0,0,1-.58-.27A6.49,6.49,0,0,0,1110.85,71.51Z"/><path d="M1135.28,55c.68-.38,1.22-.67,1.62-.86a.69.69,0,0,1,.25-.08.58.58,0,0,1,.4.25,21.6,21.6,0,0,1,3,5,1.25,1.25,0,0,1,.08.31c0,.11-.08.22-.26.34a10.56,10.56,0,0,1-1.37.65.68.68,0,0,1-.23,0c-.15,0-.27-.12-.35-.35A21.54,21.54,0,0,0,1135.28,55Zm18.18-1.94a8.3,8.3,0,0,1,2.67,1.13.54.54,0,0,1,.27.44.6.6,0,0,1-.23.42,5.71,5.71,0,0,0-1,1.72,42.53,42.53,0,0,1-5.29,9.28,31.18,31.18,0,0,1-7.28,6.84.79.79,0,0,1-.47.18.42.42,0,0,1-.32-.14,4.72,4.72,0,0,0-1.88-.88,33.55,33.55,0,0,0,8.07-7.17,32.66,32.66,0,0,0,4.89-8.86A14.26,14.26,0,0,0,1153.46,53.1Zm-11.16.27c.85-.46,1.41-.74,1.67-.85a.68.68,0,0,1,.23-.05.46.46,0,0,1,.38.28,20.09,20.09,0,0,1,2.69,5,.57.57,0,0,1,.06.21c0,.15-.1.27-.3.37a15.49,15.49,0,0,1-1.44.69l-.16,0c-.13,0-.25-.12-.35-.36A22.53,22.53,0,0,0,1142.3,53.37Z"/><path d="M1164.41,48.29c2,.18,4.29.28,6.91.28h12.74a4,4,0,0,0,1.81-.32.8.8,0,0,1,.43-.12.93.93,0,0,1,.51.16,9,9,0,0,1,1.61,1.47.85.85,0,0,1,.2.51.78.78,0,0,1-.3.6,3.43,3.43,0,0,0-.79,1.23,37.62,37.62,0,0,1-7.07,11.8,40.38,40.38,0,0,1-10.69,8.66,1.09,1.09,0,0,1-.61.21.75.75,0,0,1-.6-.28,6,6,0,0,0-1.88-1.21,34.94,34.94,0,0,0,11.64-8.9,32.82,32.82,0,0,0,6.76-11.51h-13.8c-2.08,0-4.1.08-6,.23h-.12c-.3,0-.47-.19-.53-.58,0-.09,0-.48-.09-1.16C1164.45,48.87,1164.42,48.51,1164.41,48.29Zm26.76-6.82a3.49,3.49,0,0,1,2.7,1.19,3.54,3.54,0,0,1,.93,2.44,3.49,3.49,0,0,1-1.19,2.71,3.54,3.54,0,0,1-2.44.93,3.51,3.51,0,0,1-2.71-1.19,3.63,3.63,0,0,1,2.71-6.08Zm0,1.37a2.15,2.15,0,0,0-1.69.74,2.19,2.19,0,0,0-.58,1.52,2.15,2.15,0,0,0,.74,1.69,2.2,2.2,0,0,0,1.53.58,2.13,2.13,0,0,0,1.68-.74,2.2,2.2,0,0,0,.58-1.53,2.17,2.17,0,0,0-.73-1.68A2.23,2.23,0,0,0,1191.17,42.84Z"/><path d="M1216.53,57.36a.25.25,0,0,1-.28.28l-4.69-.07h-8l-4.7.07a.25.25,0,0,1-.28-.28V55.83a.25.25,0,0,1,.28-.28l4.7.07h5.64a37.38,37.38,0,0,0,1.62-4.33,8.52,8.52,0,0,0,.33-1.93,17.24,17.24,0,0,1,2.07.53c.3.11.44.24.44.37a.87.87,0,0,1-.28.58,3.65,3.65,0,0,0-.54.86c-.4,1-.95,2.3-1.66,3.92h.36l4.69-.07a.24.24,0,0,1,.28.28ZM1216,48c0,.19-.08.28-.25.28l-4.5-.07h-6.83l-4.5.07c-.2,0-.3-.09-.3-.28V46.51a.27.27,0,0,1,.3-.3l4.5.07h2.26v-1a15.09,15.09,0,0,0-.22-3.1c.77,0,1.53.11,2.26.21.3,0,.44.15.44.3a2.58,2.58,0,0,1-.21.6,5.85,5.85,0,0,0-.19,2v1h2.49l4.5-.07c.17,0,.25.1.25.3Zm-1.72,26c0,.21-.1.32-.3.32h-1.55c-.18,0-.28-.11-.28-.32v-2h-8.79v2.16c0,.17-.09.25-.28.25h-1.63a.22.22,0,0,1-.25-.25l.07-6.08V65.35l-.07-3.9c0-.19.08-.28.25-.28l3.93.07H1210l4-.07a.25.25,0,0,1,.28.28l-.07,3.47v3Zm-8.76-20.06a.8.8,0,0,1,0,.21c0,.09-.13.17-.39.25l-1,.3a1.19,1.19,0,0,1-.34.07c-.11,0-.2-.09-.24-.28A19.53,19.53,0,0,0,1202,50a.55.55,0,0,1-.07-.21c0-.06.15-.13.44-.23l.93-.24a1.18,1.18,0,0,1,.35-.07.28.28,0,0,1,.27.17A20.06,20.06,0,0,1,1205.47,53.89ZM1212.1,70V63.16h-8.79V70Zm18-5.67q0,5.11-6.73,5.43l-.39,0c-.2,0-.36-.24-.47-.72a2.83,2.83,0,0,0-.65-1.35c4.08.07,6.11-1.12,6.11-3.57a5.75,5.75,0,0,0-1.28-3.53,30.73,30.73,0,0,0-4.59-4.47,56.82,56.82,0,0,0,5.05-10h-6.91v21l.07,7.27c0,.17-.09.25-.28.25h-1.67c-.19,0-.28-.08-.28-.25l.07-7.24V51.66l-.07-7.28a.25.25,0,0,1,.28-.28l3.22.07h5.53a2.58,2.58,0,0,0,.93-.1,1.14,1.14,0,0,1,.41-.07c.21,0,.53.21,1,.65s.61.75.61,1a.49.49,0,0,1-.25.48,2.77,2.77,0,0,0-.75,1.16,82.14,82.14,0,0,1-4.54,8.63,19.92,19.92,0,0,1,4.64,4.85A7.06,7.06,0,0,1,1230.1,64.34Z"/><g class="cls-4"><path class="cls-5" d="M1163.91,123.3v61.54l11.83,2.36c24.86,233.11-1.81,359.47,5.29,410.35,6.73,48.2,3.85,312,3.52,339.66.09.41-3.75,44.14-3.75,44.14a9,9,0,0,1-5,8.42c-1.6,13.87-6.63,53.85-13.44,75.11h-3.72v7.82l-5.12,18.46H1151l-5.08-18.41v-7.82h-3.71c-6.81-21.26-11.84-61.24-13.45-75.11a9,9,0,0,1-5-8.42s-3.83-43.73-3.74-44.14c-.33-27.63-3.22-291.46,3.52-339.66,7.1-50.88-19.57-177.24,5.28-410.35l11.83-2.36V123.35Zm-18.27,68.1c-1.32,11.87-4,33.55-5.44,58.83-2.1,35.82-2.85,78.86-2.85,111.46,0,88.41,8.31,123.08,14.86,123.08s14.86-34.67,14.86-123.08c0-33.11-.81-77-3-113.12-1.45-24.6-5.35-57.24-5.35-57.24Z"/><rect class="cls-3" x="1143.49" y="250.44" width="17.42" height="186.76"/></g><path class="cls-3" d="M235,183.15a23,23,0,1,1-11.6,3.15A22.51,22.51,0,0,1,235,183.15Zm0,1.6a20.82,20.82,0,0,0-10.77,2.94,21.36,21.36,0,0,0-7.67,7.67,21.22,21.22,0,0,0,0,21.55,21.44,21.44,0,0,0,7.67,7.67,21.22,21.22,0,0,0,21.55,0,21.41,21.41,0,0,0,7.66-7.67,21.22,21.22,0,0,0,0-21.55,21.33,21.33,0,0,0-7.66-7.67A20.88,20.88,0,0,0,235,184.75Zm2.49,7.08v25.34h5.49V220H228.16v-2.84H234V195.52a31.3,31.3,0,0,1-5.84,2.8l-.56-3a29.6,29.6,0,0,0,6.91-3.46Z"/><path class="cls-3" d="M235,382.16a23,23,0,1,1-11.6,3.15A22.51,22.51,0,0,1,235,382.16Zm0,1.6a20.82,20.82,0,0,0-10.77,2.94,21.44,21.44,0,0,0-7.67,7.67,21.22,21.22,0,0,0,0,21.55,21.44,21.44,0,0,0,7.67,7.67,21.22,21.22,0,0,0,21.55,0,21.41,21.41,0,0,0,7.66-7.67,21.22,21.22,0,0,0,0-21.55,21.41,21.41,0,0,0-7.66-7.67A20.88,20.88,0,0,0,235,383.76Zm-8.77,14.4a8.93,8.93,0,0,1,3.31-5.88,9.14,9.14,0,0,1,5.6-1.67,8.89,8.89,0,0,1,6.35,2.21,6.73,6.73,0,0,1,2.12,5.15,7.72,7.72,0,0,1-1.53,4.68,33.25,33.25,0,0,1-4.68,4.78,55.37,55.37,0,0,0-5.22,4.91,17.34,17.34,0,0,0-2.52,3.7h14V419H225.91v-2.66q2.46-5.22,8.75-10.63A27.68,27.68,0,0,0,239,401.1a5.79,5.79,0,0,0,.87-3.13,4.23,4.23,0,0,0-1.45-3.43,5.07,5.07,0,0,0-3.3-1q-4.84,0-5.43,5.48Z"/><path class="cls-3" d="M1091.26,245.83a23,23,0,1,1-11.59,3.15A22.51,22.51,0,0,1,1091.26,245.83Zm0,1.6a20.84,20.84,0,0,0-10.77,2.94,21.44,21.44,0,0,0-7.67,7.67,21.2,21.2,0,0,0,0,21.54,21.36,21.36,0,0,0,7.67,7.67,21.22,21.22,0,0,0,21.55,0,21.36,21.36,0,0,0,7.67-7.67,21.2,21.2,0,0,0,0-21.54,21.44,21.44,0,0,0-7.67-7.67A20.88,20.88,0,0,0,1091.26,247.43ZM1082.4,260q2-5.66,8.72-5.65a9,9,0,0,1,6.28,2.14,6.17,6.17,0,0,1,2,4.75,6,6,0,0,1-1.69,4.4,7.41,7.41,0,0,1-3.91,2V268a7.79,7.79,0,0,1,4.87,2.66,6.81,6.81,0,0,1,1.41,4.38,7.45,7.45,0,0,1-2.82,6.14,9.49,9.49,0,0,1-6.14,2q-7.17,0-9.29-5.65l3.41-1.2q1.41,4.05,5.93,4.05a5,5,0,0,0,4-1.62,5.27,5.27,0,0,0,1.24-3.62q0-5.53-6.49-5.53h-2.33v-3h2q6.21,0,6.21-5a4.11,4.11,0,0,0-1.51-3.42,5.77,5.77,0,0,0-8.66,3Z"/></svg>