<svg id="レイヤー_1" data-name="レイヤー 1" xmlns="http://www.w3.org/2000/svg" xmlns:xlink="http://www.w3.org/1999/xlink" viewBox="0 0 1295.59 508.35"><defs><style>.cls-1,.cls-4{fill:none;}.cls-2{fill:#e5002c;}.cls-3{clip-path:url(#clip-path);}.cls-4{stroke:#000;stroke-linecap:round;stroke-linejoin:round;}</style><clipPath id="clip-path"><rect class="cls-1" x="1072.18" y="112.21" width="164.1" height="396.14"/></clipPath></defs><path d="M689.39,246.22a6.1,6.1,0,0,1-5.61-3.67l-4.95-.16c-36.52-1.18-112.52-3.63-154.14-3.63-155.11,0-276.36-1.58-364-9.28-2.46-.21-4.56-2.79-6.24-7.68l-54.8-2.21V177l54.47-2.21c1.87-5.59,4.47-8.57,7.72-8.85l5.33-.46-7.95-10.6-12.77,1v-9.23l16.27-19.31H163c150.31-3.46,291.17,14.82,292.58,15l.73.1-.36.64c-6.09,10.87-21.48,19.51-60.27-1.07l-1.39-.73c-4.63-2.31-120.9-9.43-147.23-6.95-24.06,2.27-31.08,14.23-32,16L221.61,162c85.83-4.17,196.27-4.17,303.08-4.17,35.93,0,121.36-.77,156.42-1.1h3a6.35,6.35,0,0,1,.94-1.21,6.1,6.1,0,0,1,4.32-1.76,6.17,6.17,0,0,1,5.35,3.09L926,159.61a14,14,0,0,1,8.89,3.15l22.29.42L1051.72,189c3.56.07,5.17,5.83,5.17,11.18s-1.61,11.1-5.17,11.18l-95.66,25.9-21.48-.17A13.92,13.92,0,0,1,926,240c-1.68,0-169,1.82-230.88,2.41a6,6,0,0,1-1.34,2A6.12,6.12,0,0,1,689.39,246.22ZM684.63,242a5.14,5.14,0,0,0,8.39,1.74,4.81,4.81,0,0,0,1.18-1.81l0-.13h0a4.92,4.92,0,0,0,.27-1.53V159.82a4.77,4.77,0,0,0-.54-2.23l-.06-.13a5.17,5.17,0,0,0-4.54-2.69,5.09,5.09,0,0,0-3.61,1.47,5.41,5.41,0,0,0-.92,1.23v0a4.89,4.89,0,0,0-.57,2.19v80.49a4.94,4.94,0,0,0,.19,1.38h0v.12c0,.07,0,.14.07.2Zm-2.29-.49,1.1,0a5.56,5.56,0,0,1-.16-1.29V159.82a5.86,5.86,0,0,1,.37-2.09h-2.53c-35.06.33-120.49,1.1-156.43,1.1-106.93,0-217.49,0-303.34,4.19H221l-7.11-12.65.09-.23c.25-.58,6.43-14.3,32.92-16.8,27.76-2.62,142.88,4.61,147.77,7l1.41.74c37.29,19.78,52.43,12.27,58.55,2.11-11.27-1.44-147-18.21-291.45-14.91l-15.74,18.69v7.78l12.24-1,9.37,12.49-7.13.6c-3.59.32-5.77,4.8-7,8.5l-.11.33-54.2,2.2v40.66l54.53,2.2.11.33c1.54,4.62,3.43,7.15,5.49,7.33,87.57,7.69,208.8,9.27,363.88,9.27,41.64,0,117.65,2.45,154.17,3.63Zm13.19-81.68v80.35a6,6,0,0,1-.14,1.27c62.19-.6,228.88-2.4,230.56-2.41a12.88,12.88,0,0,0,8.14-2.83l.14-.12,21.7.18,95.66-25.9h.07c2.78,0,4.23-5.12,4.23-10.18s-1.45-10.18-4.23-10.18l-.14,0-94.59-25.82-22.45-.41-.14-.11a12.92,12.92,0,0,0-8.39-3L695.2,157.87A5.75,5.75,0,0,1,695.53,159.82Z"/><path d="M201.65,480.76q-19.15,0-38.68-.43h-.22L146.48,461v-9.22l12.77,1,7.95-10.61-5.33-.45c-3.25-.29-5.85-3.27-7.72-8.86l-54.47-2.2V388.11l54.8-2.22c1.68-4.88,3.78-7.47,6.24-7.68,87.61-7.7,208.86-9.27,364-9.27,41.62,0,117.62-2.46,154.14-3.63l4.95-.17a6.16,6.16,0,0,1,10-1.89,6,6,0,0,1,1.34,2c61.93.6,229.2,2.4,230.89,2.42a13.85,13.85,0,0,1,8.62,2.94l21.48-.17h.07l95.59,25.89c3.56.07,5.17,5.83,5.17,11.18s-1.61,11.1-5.17,11.18l-94.64,25.83H957l-22.16.4a14,14,0,0,1-8.9,3.16l-231.21,2.74a6.18,6.18,0,0,1-5.35,3.1,6.11,6.11,0,0,1-4.32-1.77,6.71,6.71,0,0,1-.94-1.2h-.83l-2,0h-.21c-35.06-.33-120.48-1.1-156.42-1.1-106.81,0-217.25,0-303.08-4.18l-6.56,11.67c.9,1.76,7.92,13.72,32,16,26.33,2.48,142.6-4.63,147.23-6.95l1.39-.73c38.79-20.57,54.19-11.93,60.27-1.07l.36.65-.73.09C454.27,465.49,336.58,480.76,201.65,480.76Zm-38.43-1.43c144.47,3.31,280.18-13.47,291.45-14.9-6.12-10.17-21.26-17.67-58.55,2.11l-1.41.73c-4.88,2.45-120,9.67-147.77,7.06-26.49-2.5-32.67-16.22-32.92-16.81l-.09-.22L221,444.64l.31,0c85.85,4.19,196.41,4.19,303.34,4.19,35.94,0,121.37.77,156.43,1.1h.22l2,0h.35a5.84,5.84,0,0,1-.37-2.08V367.53a5.79,5.79,0,0,1,.16-1.38l-4.58.15c-36.52,1.18-112.53,3.64-154.17,3.64-155.08,0-276.31,1.57-363.88,9.27-2.06.17-3.95,2.71-5.49,7.33l-.11.32-54.53,2.21v40.66l54.2,2.19.11.33c1.2,3.7,3.38,8.18,7,8.5l7.13.61-9.37,12.49-12.24-1v7.77Zm521.64-29.1a5.36,5.36,0,0,0,.92,1.22,5.1,5.1,0,0,0,3.61,1.48,5.17,5.17,0,0,0,4.54-2.7l.06-.12h0a4.78,4.78,0,0,0,.52-2.13v0a.17.17,0,0,0,0-.07V367.53a4.74,4.74,0,0,0-.28-1.61l0-.16a5.15,5.15,0,0,0-9.57-.06l0,.12h0l-.06.19,0,.13a4.36,4.36,0,0,0-.2,1.3v80.43a4.86,4.86,0,0,0,.58,2.34Zm10.67-82.7v80.35a5.83,5.83,0,0,1-.33,1.95L926,447.09a13,13,0,0,0,8.39-3l.14-.12,22.45-.41,94.66-25.83h.07c2.78,0,4.23-5.12,4.23-10.18s-1.45-10.18-4.23-10.18l-.14,0-95.59-25.88-21.7.17-.14-.12a12.87,12.87,0,0,0-8.14-2.82c-1.68,0-168.37-1.82-230.56-2.42A6,6,0,0,1,695.53,367.53Z"/><path d="M100.82,88.91c0,.19-.09.28-.26.28l-5.12-.07H81.27l-5.08.07c-.17,0-.26-.09-.26-.28V87.24c0-.18.09-.28.26-.28l5.08.07h5.58V77H79.22a35.63,35.63,0,0,1-7.63,10.65c-.25.24-.43.35-.55.35s-.25-.14-.51-.42a4.55,4.55,0,0,0-1.21-1.12q7.77-6.18,10.86-19.07H75.72l-4.85.07a.26.26,0,0,1-.3-.29v-1.7c0-.19.1-.28.3-.28l4.85.07h4.94c.23-1.26.4-2.21.49-2.85a16.77,16.77,0,0,0,.18-2.43c0-.36,0-.69,0-1,1,.13,1.83.23,2.32.32s.51.2.51.4a1.14,1.14,0,0,1-.18.56,5.92,5.92,0,0,0-.54,1.95c-.15,1.09-.33,2.1-.53,3H95.57l4.81-.07a.24.24,0,0,1,.28.28v1.7c0,.19-.09.29-.28.29l-4.81-.07H82.45a47.74,47.74,0,0,1-2.34,7.55H92.79l4.81-.07c.2,0,.3.1.3.28v1.64c0,.19-.1.28-.3.28L92.79,77H89.11V87h6.33l5.12-.07c.17,0,.26.1.26.28Z"/><path d="M121.6,71.19c0,.2-.09.3-.28.3L117,71.41h-1.11a34.34,34.34,0,0,0,5.64,7.75,5.91,5.91,0,0,0-1,1.4c-.13.26-.24.39-.34.39s-.21-.1-.38-.32a32.34,32.34,0,0,1-4.61-7.71q0,6.17.16,13c0,1.07,0,2.35.09,3.83,0,.7,0,1.09,0,1.16s-.09.3-.28.3h-1.81c-.19,0-.28-.1-.28-.3,0,0,0-1,.07-2.82q.23-8.16.25-15.13a45.44,45.44,0,0,1-6.81,11.76c-.16.25-.3.37-.42.37s-.23-.14-.33-.41a4,4,0,0,0-1-1.47,41,41,0,0,0,7.73-11.81h-2.51l-4.29.08q-.24,0-.24-.3v-1.4c0-.19.08-.28.24-.28l4.29.07h3.13v-5.7q-2.64.76-5.22,1.27l-.48,0c-.18,0-.37-.19-.56-.56a4,4,0,0,0-.88-1.07A49.87,49.87,0,0,0,112.93,62a33.14,33.14,0,0,0,4.34-1.6,6.85,6.85,0,0,0,1.64-1,16.47,16.47,0,0,1,1.55,1.26.9.9,0,0,1,.31.62c0,.17-.19.28-.58.31a6.72,6.72,0,0,0-1.54.48c-.89.37-2,.77-3.2,1.19v6.37H117l4.29-.07a.24.24,0,0,1,.28.28Zm5.22-8.52s-.06.21-.18.56a24.41,24.41,0,0,0-.14,3.71v9.79l.07,4.66a.24.24,0,0,1-.28.28h-1.7a.24.24,0,0,1-.28-.28l.07-4.66V67a31.55,31.55,0,0,0-.25-4.89,22.74,22.74,0,0,1,2.34.22C126.7,62.37,126.82,62.48,126.82,62.67Zm8.72-2.6a2.33,2.33,0,0,1-.23.68,13.48,13.48,0,0,0-.18,3.13V81.57l0,5.43a3.22,3.22,0,0,1-1,2.81,3.59,3.59,0,0,1-1.65.6,30.34,30.34,0,0,1-3.29.12,1.08,1.08,0,0,1-.65-.12,2,2,0,0,1-.24-.64,5.15,5.15,0,0,0-.76-1.67,22.72,22.72,0,0,0,3.57.23,2.1,2.1,0,0,0,1.48-.37,2,2,0,0,0,.35-1.37V63.92a28.37,28.37,0,0,0-.25-4.4,20.36,20.36,0,0,1,2.41.23C135.39,59.79,135.54,59.89,135.54,60.07Z"/><path d="M153.94,65.39,153.49,64,153,62.62a7,7,0,0,0-1.19-2.31,17.3,17.3,0,0,1,2.81-.24c.41,0,.61.14.61.44l-.08.56a8.24,8.24,0,0,0,.28,1.51c.1.38.23.82.38,1.32s.26.84.32,1a74.14,74.14,0,0,0,8-2.07.69.69,0,0,1,.21-.06c.09,0,.14.07.18.2a10.3,10.3,0,0,1,.33,1.33v.11a.37.37,0,0,1-.33.38c-2.11.66-4.69,1.33-7.73,2a32.63,32.63,0,0,0,1.68,4.06,42.4,42.4,0,0,0,7.16-2.06.64.64,0,0,1,.24,0c.11,0,.2.07.27.22a10.09,10.09,0,0,1,.31,1.38.78.78,0,0,1,0,.14.39.39,0,0,1-.3.37q-3.36,1.09-6.84,1.88a24.41,24.41,0,0,0,5.63,7.34.67.67,0,0,1,.21.37.63.63,0,0,1-.07.25,6.59,6.59,0,0,1-.86,1.41.71.71,0,0,1-.42.26.63.63,0,0,1-.39-.19,12.38,12.38,0,0,0-2.55-1.3A19.5,19.5,0,0,0,154,79.84c-4.1,0-6.15,1.19-6.15,3.55q0,3.78,9.1,3.78c.87,0,2.09-.07,3.67-.21h.08c.15,0,.22.09.22.27a.71.71,0,0,1,0,.14,9,9,0,0,1-.39,1.7.52.52,0,0,1-.48.44c-1.24.09-2.29.14-3.16.14q-11.34,0-11.34-6.08A4.81,4.81,0,0,1,148,79.23a11.1,11.1,0,0,1,5.84-1.34,17.35,17.35,0,0,1,7.45,1.32,31.62,31.62,0,0,1-4.08-6,72.45,72.45,0,0,1-10.4,1.18c-.2,0-.34-.12-.43-.37a7.34,7.34,0,0,1-.33-1.69,64.59,64.59,0,0,0,10.27-1.07c-.61-1.29-1.2-2.65-1.76-4.08a63.53,63.53,0,0,1-9.48,1.06.44.44,0,0,1-.47-.35c-.1-.39-.2-1-.32-1.67A70.34,70.34,0,0,0,153.94,65.39Z"/><path d="M220,66.08l8.07-.14a3.69,3.69,0,0,0,1.79-.39.51.51,0,0,1,.32-.1,1.32,1.32,0,0,1,.63.24,9.2,9.2,0,0,1,1.44,1.18.9.9,0,0,1,.3.6.7.7,0,0,1-.23.49,4,4,0,0,0-1,1.25,48.2,48.2,0,0,1-6.94,11.23,42.88,42.88,0,0,1-11.23,9.21.62.62,0,0,1-.32.11.78.78,0,0,1-.48-.21,5,5,0,0,0-2-1,42.78,42.78,0,0,0,7-4.61,45.87,45.87,0,0,0,4.87-4.83,42.87,42.87,0,0,0,6.77-11l-10.37.28a57.69,57.69,0,0,1-7.12,7.7,1,1,0,0,1-.6.28,1,1,0,0,1-.53-.21,4.36,4.36,0,0,0-1.82-.76A40.31,40.31,0,0,0,218,64.88a13.49,13.49,0,0,0,2-4.81,8.08,8.08,0,0,1,2.71,1.26.59.59,0,0,1,.28.48.52.52,0,0,1-.28.45,3.8,3.8,0,0,0-1.09,1.24Q220.18,65.75,220,66.08Z"/><path d="M243.43,61.54a18.66,18.66,0,0,1,2.94.58.51.51,0,0,1,.4.51,1,1,0,0,1-.07.36,10.9,10.9,0,0,0-.37,3.77v6.09c0,1.6,0,3.19.11,4.76,0,.38-.18.56-.53.56h-1.69q-.45,0-.45-.42v-.1c0-2.15.07-3.8.07-4.94V66.76A27.56,27.56,0,0,0,243.43,61.54Zm1.66,26.51q5.64-1.65,8.4-4.94,2.88-3.51,2.88-9.65V67.27A33.22,33.22,0,0,0,256,61a17.1,17.1,0,0,1,3,.58.48.48,0,0,1,.37.48.9.9,0,0,1-.12.42,17,17,0,0,0-.35,4.73v6.08q0,7-3.13,11a17.59,17.59,0,0,1-7.89,5.29,1.32,1.32,0,0,1-.42.09.91.91,0,0,1-.58-.26A6.66,6.66,0,0,0,245.09,88.05Z"/><path d="M269.52,71.58c.68-.37,1.22-.66,1.62-.86a.46.46,0,0,1,.65.18,21.5,21.5,0,0,1,2.95,5,1.05,1.05,0,0,1,.09.32q0,.15-.27.33a8.91,8.91,0,0,1-1.37.65.5.5,0,0,1-.23.05c-.15,0-.27-.11-.35-.35A22,22,0,0,0,269.52,71.58Zm18.17-1.93a8.4,8.4,0,0,1,2.68,1.12.57.57,0,0,1,.26.44.6.6,0,0,1-.23.42,5.66,5.66,0,0,0-1,1.73,42.12,42.12,0,0,1-5.29,9.28,31.14,31.14,0,0,1-7.27,6.84.9.9,0,0,1-.48.17.4.4,0,0,1-.31-.14,5.05,5.05,0,0,0-1.89-.88,33.55,33.55,0,0,0,8.07-7.17,32.36,32.36,0,0,0,4.89-8.86A14.15,14.15,0,0,0,287.69,69.65Zm-11.16.26c.86-.46,1.41-.74,1.67-.84a.53.53,0,0,1,.23-.06c.14,0,.27.1.39.29a20.24,20.24,0,0,1,2.69,5,.63.63,0,0,1,.05.21c0,.14-.1.26-.3.37a11.61,11.61,0,0,1-1.44.68.41.41,0,0,1-.16,0c-.13,0-.24-.12-.35-.37A22.17,22.17,0,0,0,276.53,69.91Z"/><path d="M298.65,64.83q3,.28,6.9.28H318.3a4,4,0,0,0,1.81-.31.72.72,0,0,1,.42-.13,1,1,0,0,1,.51.16,8.74,8.74,0,0,1,1.62,1.48.76.76,0,0,1-.11,1.11,3.38,3.38,0,0,0-.79,1.23,37.49,37.49,0,0,1-7.07,11.79A40.19,40.19,0,0,1,304,89.11a1.12,1.12,0,0,1-.62.21.81.81,0,0,1-.6-.28,5.88,5.88,0,0,0-1.88-1.22,37.48,37.48,0,0,0,7.1-4.46,38.12,38.12,0,0,0,4.54-4.43,33.18,33.18,0,0,0,6.77-11.51h-13.8c-2.09,0-4.1.07-6,.22h-.12c-.29,0-.47-.19-.53-.58,0-.09,0-.48-.09-1.16C298.69,65.41,298.66,65.05,298.65,64.83ZM325.4,58a3.62,3.62,0,1,1-2.44.93A3.52,3.52,0,0,1,325.4,58Zm0,1.37a2.2,2.2,0,0,0-1.69.74,2.24,2.24,0,0,0-.58,1.53,2.2,2.2,0,0,0,.74,1.69,2.24,2.24,0,0,0,1.53.58,2.2,2.2,0,0,0,1.69-.74,2.24,2.24,0,0,0,.58-1.53,2.2,2.2,0,0,0-.74-1.69A2.24,2.24,0,0,0,325.4,59.38Z"/><path d="M363.88,88.84a.25.25,0,0,1-.28.28l-4.77-.07H338.14l-4.76.07a.24.24,0,0,1-.28-.28V87a.24.24,0,0,1,.28-.28l4.76.07h8.14v-22a39.5,39.5,0,0,0-.23-5.18,19.29,19.29,0,0,1,2.54.21c.31,0,.47.15.47.31a2.11,2.11,0,0,1-.19.69,14,14,0,0,0-.25,3.5v6.8h7.15l4.75-.07c.2,0,.3.09.3.28v1.85c0,.18-.1.28-.3.28l-4.75-.07h-7.15V86.79h10.21l4.77-.07a.25.25,0,0,1,.28.28Z"/><path d="M398.45,65.68l-.07,5.69V81.5l0,5.74a3,3,0,0,1-.86,2.38c-.53.43-2.05.65-4.57.65-.38,0-.59,0-.65-.11a1.42,1.42,0,0,1-.21-.58,6,6,0,0,0-.72-1.58c1.26.09,2.25.14,2.95.14a2.27,2.27,0,0,0,1.39-.32,1.23,1.23,0,0,0,.37-1V67.45H372.83V85l.07,5.29a.26.26,0,0,1-.29.3H370.8c-.18,0-.28-.1-.28-.3l.07-5.47V71.26l-.07-5.58a.26.26,0,0,1,.28-.29l5.08.07h3.75A46.09,46.09,0,0,0,381.9,61a9.36,9.36,0,0,0,.61-2.06,18.18,18.18,0,0,1,2.3.58c.24.11.36.24.36.41a.58.58,0,0,1-.29.45,2.27,2.27,0,0,0-.54.72,48.3,48.3,0,0,1-2.27,4.36h11l5.05-.07C398.35,65.39,398.45,65.49,398.45,65.68Zm-7.87,18.61c0,.19-.1.28-.3.28h-1.51c-.21,0-.32-.09-.32-.28V82.74h-8.31v1.8c0,.2-.1.3-.28.3h-1.51a.27.27,0,0,1-.3-.3l.07-5.82V76l-.07-3.64a.24.24,0,0,1,.28-.28l3.79.07h4.38l3.8-.07a.24.24,0,0,1,.28.28l-.07,3.18v3Zm-2.13-3.46V74.08h-8.31v6.75Z"/><path d="M416.81,65.39c-.1-.27-.25-.72-.46-1.35l-.48-1.42a7,7,0,0,0-1.19-2.31,17.3,17.3,0,0,1,2.81-.24c.41,0,.62.14.62.44l-.09.56a8.24,8.24,0,0,0,.28,1.51c.11.38.23.82.39,1.32s.25.84.31,1a74.39,74.39,0,0,0,8-2.07.57.57,0,0,1,.21-.06c.08,0,.14.07.17.2a12,12,0,0,1,.34,1.33v.11a.37.37,0,0,1-.34.38c-2.11.66-4.68,1.33-7.73,2a31.32,31.32,0,0,0,1.69,4.06,42.27,42.27,0,0,0,7.15-2.06.72.72,0,0,1,.25,0c.1,0,.19.07.26.22a10.25,10.25,0,0,1,.32,1.38.71.71,0,0,1,0,.14.39.39,0,0,1-.29.37q-3.36,1.09-6.84,1.88a24.39,24.39,0,0,0,5.62,7.34.67.67,0,0,1,.21.37.63.63,0,0,1-.07.25,6.59,6.59,0,0,1-.86,1.41.48.48,0,0,1-.81.07,11.88,11.88,0,0,0-2.55-1.3,19.5,19.5,0,0,0-6.87-1.08c-4.1,0-6.15,1.19-6.15,3.55q0,3.78,9.1,3.78c.87,0,2.1-.07,3.68-.21h.07c.15,0,.23.09.23.27a.78.78,0,0,1,0,.14,8.32,8.32,0,0,1-.39,1.7.52.52,0,0,1-.47.44c-1.24.09-2.3.14-3.17.14q-11.33,0-11.33-6.08a4.8,4.8,0,0,1,2.47-4.34,11.12,11.12,0,0,1,5.84-1.34,17.32,17.32,0,0,1,7.45,1.32,31.16,31.16,0,0,1-4.07-6,72.42,72.42,0,0,1-10.41,1.18c-.2,0-.34-.12-.42-.37a6.84,6.84,0,0,1-.34-1.69,64.59,64.59,0,0,0,10.27-1.07c-.61-1.29-1.2-2.65-1.76-4.08A63.54,63.54,0,0,1,408,68.28a.44.44,0,0,1-.48-.35c-.09-.39-.2-1-.31-1.67A70.48,70.48,0,0,0,416.81,65.39Z"/><path d="M482.81,65.87l8.07-.14a3.4,3.4,0,0,0,1.79-.41.53.53,0,0,1,.32-.1,1.32,1.32,0,0,1,.63.24,9,9,0,0,1,1.44,1.2.84.84,0,0,1,.3.58.65.65,0,0,1-.23.49,4.15,4.15,0,0,0-.95,1.27,50.36,50.36,0,0,1-6.94,11.34A44.16,44.16,0,0,1,476,89.65a.59.59,0,0,1-.32.11.73.73,0,0,1-.47-.21,5.09,5.09,0,0,0-2-1,44.52,44.52,0,0,0,7.05-4.71A44.16,44.16,0,0,0,485.11,79a44.71,44.71,0,0,0,6.77-11.12l-10.37.3a59,59,0,0,1-7.12,7.7,1,1,0,0,1-.6.28,1,1,0,0,1-.52-.21,4.58,4.58,0,0,0-1.83-.76,40.31,40.31,0,0,0,9.4-10.48,12.55,12.55,0,0,0,1.83-4.6,8.08,8.08,0,0,1,2.71,1.26.56.56,0,0,1,.28.48.5.5,0,0,1-.28.45,3.6,3.6,0,0,0-1.09,1.24C483.46,64.85,483,65.65,482.81,65.87Zm10.78-4.22,1.28-.93a.32.32,0,0,1,.21-.09.3.3,0,0,1,.19.09,15.79,15.79,0,0,1,4.07,4.36.24.24,0,0,1,.07.16.28.28,0,0,1-.15.22l-1,.87a.46.46,0,0,1-.23.08.27.27,0,0,1-.25-.15A14.7,14.7,0,0,0,493.59,61.65Zm3.16-2.41,1.14-.91a.48.48,0,0,1,.23-.09.27.27,0,0,1,.18.07,19.32,19.32,0,0,1,4.11,4.2.35.35,0,0,1,0,.18.35.35,0,0,1-.17.26l-1,.86a.3.3,0,0,1-.19.09.33.33,0,0,1-.25-.18A16,16,0,0,0,496.75,59.24Z"/><path d="M510.22,61.54a18.52,18.52,0,0,1,2.93.58.52.52,0,0,1,.41.51,1.27,1.27,0,0,1-.07.36,10.64,10.64,0,0,0-.37,3.77v6.09c0,1.6,0,3.19.1,4.76,0,.38-.17.56-.53.56H511c-.31,0-.46-.14-.46-.42v-.1c.05-2.15.07-3.8.07-4.94V66.76A27.67,27.67,0,0,0,510.22,61.54Zm1.65,26.51q5.64-1.65,8.4-4.94,2.88-3.51,2.88-9.65V67.27a33.22,33.22,0,0,0-.4-6.31,17.05,17.05,0,0,1,3.06.58.49.49,0,0,1,.37.48.82.82,0,0,1-.13.42,17,17,0,0,0-.35,4.73v6.08q0,7-3.13,11a17.48,17.48,0,0,1-7.89,5.29,1.22,1.22,0,0,1-.42.09.91.91,0,0,1-.58-.26A6.51,6.51,0,0,0,511.87,88.05Z"/><path d="M536.3,71.58c.68-.37,1.22-.66,1.62-.86a.6.6,0,0,1,.25-.07.57.57,0,0,1,.4.25,21.16,21.16,0,0,1,2.95,5,1.05,1.05,0,0,1,.09.32c0,.1-.09.21-.26.33a9.39,9.39,0,0,1-1.37.65.53.53,0,0,1-.23.05c-.15,0-.27-.11-.35-.35A22.38,22.38,0,0,0,536.3,71.58Zm18.18-1.93a8.43,8.43,0,0,1,2.67,1.12.54.54,0,0,1,.26.44.56.56,0,0,1-.23.42,5.69,5.69,0,0,0-1,1.73,42.94,42.94,0,0,1-5.29,9.28,31.18,31.18,0,0,1-7.28,6.84.85.85,0,0,1-.48.17.41.41,0,0,1-.31-.14,5,5,0,0,0-1.88-.88A33.55,33.55,0,0,0,549,81.46a32.61,32.61,0,0,0,4.88-8.86A14.09,14.09,0,0,0,554.48,69.65Zm-11.16.26c.85-.46,1.41-.74,1.67-.84a.49.49,0,0,1,.22-.06c.14,0,.27.1.39.29a20.24,20.24,0,0,1,2.69,5,.46.46,0,0,1,.05.21c0,.14-.1.26-.3.37a11.61,11.61,0,0,1-1.44.68.41.41,0,0,1-.16,0c-.12,0-.24-.12-.35-.37A22.17,22.17,0,0,0,543.32,69.91Z"/><path d="M565.43,64.83q3,.28,6.91.28h12.74a4,4,0,0,0,1.81-.31.72.72,0,0,1,.42-.13,1,1,0,0,1,.51.16,8.74,8.74,0,0,1,1.62,1.48.79.79,0,0,1,.19.51.82.82,0,0,1-.29.6,3.26,3.26,0,0,0-.8,1.23,37.47,37.47,0,0,1-7.06,11.79,40.23,40.23,0,0,1-10.69,8.67,1.12,1.12,0,0,1-.61.21.78.78,0,0,1-.6-.28,6,6,0,0,0-1.88-1.22,38.13,38.13,0,0,0,7.1-4.46,37.35,37.35,0,0,0,4.53-4.43,33,33,0,0,0,6.77-11.51H572.3c-2.08,0-4.1.07-6,.22h-.13c-.29,0-.47-.19-.53-.58,0-.09,0-.48-.08-1.16C565.47,65.41,565.44,65.05,565.43,64.83ZM592.18,58a3.65,3.65,0,0,1,2.45,6.35,3.57,3.57,0,0,1-2.45.93,3.64,3.64,0,0,1-3.64-3.64A3.62,3.62,0,0,1,592.18,58Zm0,1.37a2.16,2.16,0,0,0-1.68.74,2.32,2.32,0,0,0,.15,3.22,2.28,2.28,0,0,0,1.53.58,2.28,2.28,0,0,0,1.53-4A2.24,2.24,0,0,0,592.18,59.38Z"/><path d="M610.24,60.17a.74.74,0,0,1-.34.51,3.2,3.2,0,0,0-.7,1.34q-1.55,3.62-2.5,5.54V85.27l.07,5.58a.25.25,0,0,1-.28.28h-1.77a.26.26,0,0,1-.29-.28l.08-5.58V76.12c0-1.91,0-3.46,0-4.64a40.06,40.06,0,0,1-3.71,5.15c-.17.21-.32.31-.42.31s-.23-.11-.37-.35a5.34,5.34,0,0,0-1-1.44A38,38,0,0,0,607,61.4a8.53,8.53,0,0,0,.58-2.46,16.67,16.67,0,0,1,2.27.85C610.1,59.89,610.24,60,610.24,60.17Zm20.88,9.3a.25.25,0,0,1-.28.28l-5-.07h-.07V81.85l0,5.59a4.67,4.67,0,0,1-.23,1.65,2.29,2.29,0,0,1-.74.9c-.56.41-2.29.61-5.18.61a1.33,1.33,0,0,1-.69-.1,1.67,1.67,0,0,1-.21-.58,6.11,6.11,0,0,0-.72-1.71c1.44.13,2.79.19,4.06.19a1.55,1.55,0,0,0,1.19-.35,1.52,1.52,0,0,0,.29-1V69.68h-8.28l-5,.07a.24.24,0,0,1-.28-.28v-1.6a.24.24,0,0,1,.28-.28l5,.07h8.28V63.44a31.29,31.29,0,0,0-.22-4.37,18.63,18.63,0,0,1,2.38.21c.31,0,.47.14.47.31a3.41,3.41,0,0,1-.26.69,14.25,14.25,0,0,0-.18,3.09v4.29h.07l5-.07a.25.25,0,0,1,.28.28Zm-12.68,10.9a.38.38,0,0,1,.06.18c0,.08-.12.2-.35.37l-1,.68a1.37,1.37,0,0,1-.46.21c-.08,0-.16-.07-.23-.21A29.82,29.82,0,0,0,612.17,75a.43.43,0,0,1-.12-.19c0-.06.13-.18.38-.36l1-.61a.67.67,0,0,1,.27-.12.38.38,0,0,1,.21.12A33.21,33.21,0,0,1,618.44,80.37Z"/><path d="M100.82,321.53c0,.19-.09.29-.26.29l-5.12-.07H81.27l-5.08.07c-.17,0-.26-.1-.26-.29v-1.67c0-.18.09-.28.26-.28l5.08.07h5.58V309.58H79.22a35.51,35.51,0,0,1-7.63,10.65c-.25.24-.43.36-.55.36s-.25-.15-.51-.43A4.55,4.55,0,0,0,69.32,319q7.77-6.17,10.86-19.07H75.72l-4.85.07c-.2,0-.3-.1-.3-.28v-1.71c0-.19.1-.28.3-.28l4.85.07h4.94c.23-1.25.4-2.2.49-2.85a16.73,16.73,0,0,0,.18-2.42c0-.37,0-.7,0-1,1,.13,1.83.24,2.32.32s.51.2.51.4a1.14,1.14,0,0,1-.18.56,5.92,5.92,0,0,0-.54,2c-.15,1.09-.33,2.09-.53,3H95.57l4.81-.07a.24.24,0,0,1,.28.28v1.71a.25.25,0,0,1-.28.28L95.57,300H82.45a47.74,47.74,0,0,1-2.34,7.55H92.79l4.81-.07a.26.26,0,0,1,.3.29v1.63c0,.19-.1.28-.3.28l-4.81-.07H89.11v10.07h6.33l5.12-.07c.17,0,.26.1.26.28Z"/><path d="M121.6,303.82c0,.19-.09.29-.28.29L117,304h-1.11a34.34,34.34,0,0,0,5.64,7.75,5.91,5.91,0,0,0-1,1.4c-.13.26-.24.39-.34.39s-.21-.1-.38-.31a32.61,32.61,0,0,1-4.61-7.72q0,6.16.16,13c0,1.07,0,2.35.09,3.83,0,.7,0,1.09,0,1.16s-.09.3-.28.3h-1.81c-.19,0-.28-.1-.28-.3,0,0,0-1,.07-2.81q.23-8.18.25-15.14a45.44,45.44,0,0,1-6.81,11.76c-.16.25-.3.37-.42.37s-.23-.13-.33-.4a4,4,0,0,0-1-1.48A41,41,0,0,0,112.7,304h-2.51l-4.29.08c-.16,0-.24-.1-.24-.29v-1.41c0-.19.08-.28.24-.28l4.29.07h3.13v-5.7q-2.64.76-5.22,1.27l-.48.05c-.18,0-.37-.19-.56-.56a4,4,0,0,0-.88-1.07,49.87,49.87,0,0,0,6.75-1.57,33.14,33.14,0,0,0,4.34-1.6,6.85,6.85,0,0,0,1.64-1,16.47,16.47,0,0,1,1.55,1.26.9.9,0,0,1,.31.62c0,.17-.19.28-.58.32a6.11,6.11,0,0,0-1.54.47c-.89.37-2,.77-3.2,1.2v6.36H117l4.29-.07a.24.24,0,0,1,.28.28Zm5.22-8.53s-.06.21-.18.56a24.51,24.51,0,0,0-.14,3.71v9.79l.07,4.66a.24.24,0,0,1-.28.28h-1.7a.24.24,0,0,1-.28-.28l.07-4.66v-9.72a31.3,31.3,0,0,0-.25-4.88,20.34,20.34,0,0,1,2.34.21C126.7,295,126.82,295.1,126.82,295.29Zm8.72-2.6a2.24,2.24,0,0,1-.23.68,13.55,13.55,0,0,0-.18,3.13v17.69l0,5.43a3.22,3.22,0,0,1-1,2.81,3.59,3.59,0,0,1-1.65.6,30.34,30.34,0,0,1-3.29.12,1.08,1.08,0,0,1-.65-.12,2,2,0,0,1-.24-.63,5.05,5.05,0,0,0-.76-1.67,24.15,24.15,0,0,0,3.57.22,2.16,2.16,0,0,0,1.48-.36,2,2,0,0,0,.35-1.38V296.54a28.37,28.37,0,0,0-.25-4.4,22.72,22.72,0,0,1,2.41.23C135.39,292.41,135.54,292.51,135.54,292.69Z"/><path d="M153.94,298l-.45-1.35-.48-1.42a7.09,7.09,0,0,0-1.19-2.31,17.3,17.3,0,0,1,2.81-.24c.41,0,.61.15.61.44l-.08.56a8.09,8.09,0,0,0,.28,1.51c.1.38.23.82.38,1.32s.26.84.32,1a74.14,74.14,0,0,0,8-2.07.69.69,0,0,1,.21-.06c.09,0,.14.07.18.2a10.74,10.74,0,0,1,.33,1.33v.11a.37.37,0,0,1-.33.38c-2.11.66-4.69,1.33-7.73,2a32.63,32.63,0,0,0,1.68,4.06,42.4,42.4,0,0,0,7.16-2.06.93.93,0,0,1,.24,0c.11,0,.2.07.27.23a9.66,9.66,0,0,1,.31,1.37.93.93,0,0,1,0,.14.39.39,0,0,1-.3.37c-2.24.74-4.52,1.36-6.84,1.88a24.46,24.46,0,0,0,5.63,7.35.63.63,0,0,1,.21.36.6.6,0,0,1-.07.25,6.59,6.59,0,0,1-.86,1.41.71.71,0,0,1-.42.26.63.63,0,0,1-.39-.19,12.9,12.9,0,0,0-2.55-1.3,19.5,19.5,0,0,0-6.87-1.08c-4.1,0-6.15,1.19-6.15,3.55q0,3.78,9.1,3.78c.87,0,2.09-.07,3.67-.21h.08c.15,0,.22.09.22.27a.71.71,0,0,1,0,.14,9,9,0,0,1-.39,1.7.52.52,0,0,1-.48.44c-1.24.1-2.29.14-3.16.14q-11.34,0-11.34-6.08a4.81,4.81,0,0,1,2.48-4.34,11.1,11.1,0,0,1,5.84-1.34,17.35,17.35,0,0,1,7.45,1.32,31.3,31.3,0,0,1-4.08-6,72.45,72.45,0,0,1-10.4,1.18c-.2,0-.34-.12-.43-.37a7.24,7.24,0,0,1-.33-1.69,64.59,64.59,0,0,0,10.27-1.07c-.61-1.29-1.2-2.65-1.76-4.08a63.53,63.53,0,0,1-9.48,1.06.44.44,0,0,1-.47-.35c-.1-.39-.2-.95-.32-1.67A68.8,68.8,0,0,0,153.94,298Z"/><path d="M220,298.7l8.07-.14a3.57,3.57,0,0,0,1.79-.39.51.51,0,0,1,.32-.1,1.32,1.32,0,0,1,.63.24,9.2,9.2,0,0,1,1.44,1.18.9.9,0,0,1,.3.6.7.7,0,0,1-.23.49,4,4,0,0,0-1,1.25,48.2,48.2,0,0,1-6.94,11.23,42.88,42.88,0,0,1-11.23,9.21.62.62,0,0,1-.32.11.78.78,0,0,1-.48-.21,5.15,5.15,0,0,0-2-1,42.78,42.78,0,0,0,7-4.61,45.87,45.87,0,0,0,4.87-4.83,42.87,42.87,0,0,0,6.77-11l-10.37.28a57.69,57.69,0,0,1-7.12,7.7,1,1,0,0,1-.6.28,1,1,0,0,1-.53-.21,4.36,4.36,0,0,0-1.82-.76,40.43,40.43,0,0,0,9.4-10.47,13.6,13.6,0,0,0,2-4.82,8.08,8.08,0,0,1,2.71,1.26.59.59,0,0,1,.28.48.54.54,0,0,1-.28.46,3.65,3.65,0,0,0-1.09,1.23Q220.18,298.37,220,298.7Z"/><path d="M243.43,294.17a16.63,16.63,0,0,1,2.94.58.49.49,0,0,1,.4.51,1,1,0,0,1-.07.35,10.94,10.94,0,0,0-.37,3.78v6.08c0,1.6,0,3.19.11,4.76,0,.38-.18.56-.53.56h-1.69q-.45,0-.45-.42v-.1c0-2.15.07-3.79.07-4.94v-5.94A27.41,27.41,0,0,0,243.43,294.17Zm1.66,26.5q5.64-1.65,8.4-4.94,2.88-3.51,2.88-9.65V299.9a33.08,33.08,0,0,0-.4-6.31,15.48,15.48,0,0,1,3,.58.47.47,0,0,1,.37.47.9.9,0,0,1-.12.42,17,17,0,0,0-.35,4.73v6.08q0,7-3.13,11a17.59,17.59,0,0,1-7.89,5.29,1.32,1.32,0,0,1-.42.09.91.91,0,0,1-.58-.26A6.66,6.66,0,0,0,245.09,320.67Z"/><path d="M269.52,304.2c.68-.37,1.22-.66,1.62-.86a.46.46,0,0,1,.65.18,21.5,21.5,0,0,1,2.95,5,1.05,1.05,0,0,1,.09.32c0,.1-.09.22-.27.33a8.91,8.91,0,0,1-1.37.65.53.53,0,0,1-.23.06c-.15,0-.27-.12-.35-.36A22,22,0,0,0,269.52,304.2Zm18.17-1.93a8.64,8.64,0,0,1,2.68,1.12.57.57,0,0,1,.26.44.64.64,0,0,1-.23.43,5.57,5.57,0,0,0-1,1.72,42.12,42.12,0,0,1-5.29,9.28,31.14,31.14,0,0,1-7.27,6.84.9.9,0,0,1-.48.17.37.37,0,0,1-.31-.14,5.05,5.05,0,0,0-1.89-.88,33.55,33.55,0,0,0,8.07-7.17,32.36,32.36,0,0,0,4.89-8.86A14.15,14.15,0,0,0,287.69,302.27Zm-11.16.26c.86-.45,1.41-.74,1.67-.84a.5.5,0,0,1,.23-.05.49.49,0,0,1,.39.28,20.42,20.42,0,0,1,2.69,5,.63.63,0,0,1,.05.21c0,.14-.1.26-.3.37a13.39,13.39,0,0,1-1.44.69l-.16,0c-.13,0-.24-.12-.35-.37A22.17,22.17,0,0,0,276.53,302.53Z"/><path d="M298.65,297.45q3,.29,6.9.28H318.3a4,4,0,0,0,1.81-.31.8.8,0,0,1,.42-.13,1,1,0,0,1,.51.16,8.74,8.74,0,0,1,1.62,1.48.76.76,0,0,1-.11,1.11,3.38,3.38,0,0,0-.79,1.23,37.49,37.49,0,0,1-7.07,11.79A40.19,40.19,0,0,1,304,321.73a1.12,1.12,0,0,1-.62.21.78.78,0,0,1-.6-.28,6.05,6.05,0,0,0-1.88-1.22A37,37,0,0,0,308,316a38.12,38.12,0,0,0,4.54-4.43A33.18,33.18,0,0,0,319.32,300h-13.8c-2.09,0-4.1.07-6,.22h-.12c-.29,0-.47-.19-.53-.58,0-.09,0-.48-.09-1.16C298.69,298,298.66,297.68,298.65,297.45Zm26.75-6.82a3.62,3.62,0,1,1-2.44.93A3.52,3.52,0,0,1,325.4,290.63Zm0,1.37a2.2,2.2,0,0,0-1.69.74,2.26,2.26,0,0,0-.58,1.53,2.28,2.28,0,0,0,4,1.53,2.24,2.24,0,0,0,.58-1.53,2.2,2.2,0,0,0-.74-1.69A2.24,2.24,0,0,0,325.4,292Z"/><path d="M364,296.33a.26.26,0,0,1-.29.28l-4.71-.07H348.81v5.39a56.89,56.89,0,0,1,11.27,5.88c.13.08.19.15.19.22a.75.75,0,0,1-.19.39l-.75,1c-.19.27-.33.4-.41.4a.45.45,0,0,1-.24-.1,57.57,57.57,0,0,0-9.87-5.59v13.22l.07,5.74c0,.2-.09.3-.28.3h-1.91c-.19,0-.28-.1-.28-.3l.07-5.74V296.54h-8.6l-4.73.07a.25.25,0,0,1-.28-.28v-1.74a.24.24,0,0,1,.28-.28l4.73.07H359l4.71-.07c.19,0,.29.09.29.28Z"/><path d="M398.45,298.3l-.07,5.69v10.13l0,5.74a3,3,0,0,1-.86,2.38c-.53.43-2.05.65-4.57.65-.38,0-.59,0-.65-.11a1.35,1.35,0,0,1-.21-.58,6,6,0,0,0-.72-1.58c1.26.09,2.25.14,2.95.14a2.2,2.2,0,0,0,1.39-.32,1.22,1.22,0,0,0,.37-1V300.07H372.83V317.6l.07,5.29a.26.26,0,0,1-.29.3H370.8c-.18,0-.28-.1-.28-.3l.07-5.47V303.89l-.07-5.59a.26.26,0,0,1,.28-.29l5.08.08h3.75a47.34,47.34,0,0,0,2.27-4.47,9.36,9.36,0,0,0,.61-2.06,18.18,18.18,0,0,1,2.3.58c.24.11.36.24.36.41a.62.62,0,0,1-.29.46,2.07,2.07,0,0,0-.54.72q-1.05,2.28-2.27,4.36h11l5.05-.08C398.35,298,398.45,298.11,398.45,298.3Zm-7.87,18.61c0,.19-.1.28-.3.28h-1.51c-.21,0-.32-.09-.32-.28v-1.55h-8.31v1.8c0,.2-.1.3-.28.3h-1.51a.27.27,0,0,1-.3-.3l.07-5.82v-2.71l-.07-3.64a.25.25,0,0,1,.28-.28l3.79.07h4.38l3.8-.07a.25.25,0,0,1,.28.28l-.07,3.19v3Zm-2.13-3.46V306.7h-8.31v6.75Z"/><path d="M416.81,298c-.1-.26-.25-.72-.46-1.35l-.48-1.42a7.09,7.09,0,0,0-1.19-2.31,17.3,17.3,0,0,1,2.81-.24c.41,0,.62.15.62.44l-.09.56a8.09,8.09,0,0,0,.28,1.51c.11.38.23.82.39,1.32s.25.84.31,1a74.39,74.39,0,0,0,8-2.07.57.57,0,0,1,.21-.06c.08,0,.14.07.17.2a12.66,12.66,0,0,1,.34,1.33v.11a.37.37,0,0,1-.34.38c-2.11.66-4.68,1.33-7.73,2a31.32,31.32,0,0,0,1.69,4.06,42.27,42.27,0,0,0,7.15-2.06,1.08,1.08,0,0,1,.25,0c.1,0,.19.07.26.23a9.8,9.8,0,0,1,.32,1.37.76.76,0,0,1,0,.14.39.39,0,0,1-.29.37c-2.24.74-4.52,1.36-6.84,1.88a24.45,24.45,0,0,0,5.62,7.35.63.63,0,0,1,.21.36.6.6,0,0,1-.07.25,6.59,6.59,0,0,1-.86,1.41.48.48,0,0,1-.81.07,12.36,12.36,0,0,0-2.55-1.3,19.5,19.5,0,0,0-6.87-1.08c-4.1,0-6.15,1.19-6.15,3.55q0,3.78,9.1,3.78c.87,0,2.1-.07,3.68-.21h.07c.15,0,.23.09.23.27a.78.78,0,0,1,0,.14,8.32,8.32,0,0,1-.39,1.7.52.52,0,0,1-.47.44c-1.24.1-2.3.14-3.17.14q-11.33,0-11.33-6.08a4.8,4.8,0,0,1,2.47-4.34,11.12,11.12,0,0,1,5.84-1.34,17.32,17.32,0,0,1,7.45,1.32,30.84,30.84,0,0,1-4.07-6,72.42,72.42,0,0,1-10.41,1.18c-.2,0-.34-.12-.42-.37a6.75,6.75,0,0,1-.34-1.69,64.59,64.59,0,0,0,10.27-1.07c-.61-1.29-1.2-2.65-1.76-4.08A63.54,63.54,0,0,1,408,300.9a.44.44,0,0,1-.48-.35c-.09-.39-.2-.95-.31-1.67A68.93,68.93,0,0,0,416.81,298Z"/><path d="M482.81,298.49l8.07-.14a3.4,3.4,0,0,0,1.79-.41.53.53,0,0,1,.32-.1,1.25,1.25,0,0,1,.63.25,8.92,8.92,0,0,1,1.44,1.19.84.84,0,0,1,.3.58.65.65,0,0,1-.23.49,4.15,4.15,0,0,0-.95,1.27A50.36,50.36,0,0,1,487.24,313,44,44,0,0,1,476,322.27a.59.59,0,0,1-.32.11.73.73,0,0,1-.47-.21,5.22,5.22,0,0,0-2-1,44.52,44.52,0,0,0,7.05-4.71,44,44,0,0,0,4.86-4.83,45,45,0,0,0,6.77-11.13l-10.37.3a58.36,58.36,0,0,1-7.12,7.7,1,1,0,0,1-.6.28,1,1,0,0,1-.52-.21,4.58,4.58,0,0,0-1.83-.76,40.31,40.31,0,0,0,9.4-10.48,12.55,12.55,0,0,0,1.83-4.6,8.08,8.08,0,0,1,2.71,1.26.56.56,0,0,1,.28.48.52.52,0,0,1-.28.46,3.46,3.46,0,0,0-1.09,1.23C483.46,297.48,483,298.27,482.81,298.49Zm10.78-4.22,1.28-.93a.32.32,0,0,1,.21-.09.3.3,0,0,1,.19.09,15.79,15.79,0,0,1,4.07,4.36.26.26,0,0,1,.07.16c0,.08-.05.15-.15.23l-1,.86a.38.38,0,0,1-.23.08.27.27,0,0,1-.25-.15A14.7,14.7,0,0,0,493.59,294.27Zm3.16-2.41,1.14-.91a.48.48,0,0,1,.23-.09.27.27,0,0,1,.18.07,19.78,19.78,0,0,1,4.11,4.2.35.35,0,0,1,0,.18.35.35,0,0,1-.17.26l-1,.86a.3.3,0,0,1-.19.09.34.34,0,0,1-.25-.17A15.85,15.85,0,0,0,496.75,291.86Z"/><path d="M510.22,294.17a16.51,16.51,0,0,1,2.93.58.5.5,0,0,1,.41.51,1.27,1.27,0,0,1-.07.35,10.68,10.68,0,0,0-.37,3.78v6.08c0,1.6,0,3.19.1,4.76,0,.38-.17.56-.53.56H511c-.31,0-.46-.14-.46-.42v-.1c.05-2.15.07-3.79.07-4.94v-5.94A27.52,27.52,0,0,0,510.22,294.17Zm1.65,26.5q5.64-1.65,8.4-4.94,2.88-3.51,2.88-9.65V299.9a33.08,33.08,0,0,0-.4-6.31,15.45,15.45,0,0,1,3.06.58.48.48,0,0,1,.37.47.82.82,0,0,1-.13.42,17,17,0,0,0-.35,4.73v6.08q0,7-3.13,11a17.48,17.48,0,0,1-7.89,5.29,1.22,1.22,0,0,1-.42.09.91.91,0,0,1-.58-.26A6.51,6.51,0,0,0,511.87,320.67Z"/><path d="M536.3,304.2c.68-.37,1.22-.66,1.62-.86a.6.6,0,0,1,.25-.07.57.57,0,0,1,.4.25,21.16,21.16,0,0,1,2.95,5,1.05,1.05,0,0,1,.09.32c0,.1-.09.22-.26.33a9.39,9.39,0,0,1-1.37.65.56.56,0,0,1-.23.06c-.15,0-.27-.12-.35-.36A22.38,22.38,0,0,0,536.3,304.2Zm18.18-1.93a8.67,8.67,0,0,1,2.67,1.12.54.54,0,0,1,.26.44.6.6,0,0,1-.23.43,5.61,5.61,0,0,0-1,1.72,42.94,42.94,0,0,1-5.29,9.28,31.18,31.18,0,0,1-7.28,6.84.85.85,0,0,1-.48.17.38.38,0,0,1-.31-.14,5,5,0,0,0-1.88-.88,33.55,33.55,0,0,0,8.07-7.17,32.61,32.61,0,0,0,4.88-8.86A14.09,14.09,0,0,0,554.48,302.27Zm-11.16.26c.85-.45,1.41-.74,1.67-.84a.47.47,0,0,1,.22-.05.49.49,0,0,1,.39.28,20.42,20.42,0,0,1,2.69,5,.46.46,0,0,1,.05.21c0,.14-.1.26-.3.37a13.39,13.39,0,0,1-1.44.69l-.16,0c-.12,0-.24-.12-.35-.37A22.17,22.17,0,0,0,543.32,302.53Z"/><path d="M565.43,297.45q3,.29,6.91.28h12.74a4,4,0,0,0,1.81-.31.8.8,0,0,1,.42-.13,1,1,0,0,1,.51.16,8.74,8.74,0,0,1,1.62,1.48.79.79,0,0,1,.19.51.82.82,0,0,1-.29.6,3.26,3.26,0,0,0-.8,1.23,37.47,37.47,0,0,1-7.06,11.79,40.23,40.23,0,0,1-10.69,8.67,1.12,1.12,0,0,1-.61.21.75.75,0,0,1-.6-.28,6.17,6.17,0,0,0-1.88-1.22,34.57,34.57,0,0,0,11.63-8.89A33,33,0,0,0,586.1,300H572.3c-2.08,0-4.1.07-6,.22h-.13c-.29,0-.47-.19-.53-.58,0-.09,0-.48-.08-1.16C565.47,298,565.44,297.68,565.43,297.45Zm26.75-6.82a3.65,3.65,0,0,1,2.45,6.35,3.57,3.57,0,0,1-2.45.93,3.64,3.64,0,0,1-3.64-3.64,3.62,3.62,0,0,1,3.64-3.64Zm0,1.37a2.16,2.16,0,0,0-1.68.74,2.21,2.21,0,0,0-.58,1.53,2.19,2.19,0,0,0,.73,1.69,2.23,2.23,0,0,0,1.53.58,2.28,2.28,0,0,0,1.53-4A2.24,2.24,0,0,0,592.18,292Z"/><path d="M610.24,292.79a.74.74,0,0,1-.34.51,3.2,3.2,0,0,0-.7,1.34q-1.55,3.62-2.5,5.54V317.9l.07,5.57a.24.24,0,0,1-.28.28h-1.77c-.19,0-.29-.09-.29-.28l.08-5.57v-9.16c0-1.91,0-3.46,0-4.64a39.38,39.38,0,0,1-3.71,5.15c-.17.21-.32.31-.42.31s-.23-.11-.37-.35a5.34,5.34,0,0,0-1-1.44A38,38,0,0,0,607,294a8.53,8.53,0,0,0,.58-2.46,16.67,16.67,0,0,1,2.27.85C610.1,292.51,610.24,292.64,610.24,292.79Zm20.88,9.3a.25.25,0,0,1-.28.28l-5-.07h-.07v12.17l0,5.59a4.64,4.64,0,0,1-.23,1.65,2.29,2.29,0,0,1-.74.9c-.56.41-2.29.61-5.18.61a1.33,1.33,0,0,1-.69-.1,1.67,1.67,0,0,1-.21-.58,6.11,6.11,0,0,0-.72-1.71c1.44.13,2.79.19,4.06.19a1.55,1.55,0,0,0,1.19-.35,1.52,1.52,0,0,0,.29-1.05V302.3h-8.28l-5,.07a.24.24,0,0,1-.28-.28v-1.6a.25.25,0,0,1,.28-.28l5,.07h8.28v-4.22a31.29,31.29,0,0,0-.22-4.37,18.63,18.63,0,0,1,2.38.21c.31,0,.47.14.47.31a3.41,3.41,0,0,1-.26.69,14.25,14.25,0,0,0-.18,3.09v4.29h.07l5-.07a.25.25,0,0,1,.28.28ZM618.44,313a.38.38,0,0,1,.06.18c0,.08-.12.2-.35.37l-1,.68a1.37,1.37,0,0,1-.46.21c-.08,0-.16-.07-.23-.21a29.82,29.82,0,0,0-4.25-6.59.43.43,0,0,1-.12-.19c0-.06.13-.18.38-.35l1-.62a.67.67,0,0,1,.27-.12.38.38,0,0,1,.21.12A33.21,33.21,0,0,1,618.44,313Z"/><rect class="cls-2" x="272.35" y="179.78" width="376.61" height="43.1"/><rect class="cls-2" x="730.15" y="178.81" width="186.76" height="43.1"/><rect class="cls-2" x="272.35" y="389.77" width="376.61" height="43.1"/><rect class="cls-2" x="730.15" y="389.77" width="186.76" height="43.1"/><path d="M1085.72,49.53l8.06-.14a3.64,3.64,0,0,0,1.8-.38.51.51,0,0,1,.31-.11,1.25,1.25,0,0,1,.64.25,9.2,9.2,0,0,1,1.44,1.18.9.9,0,0,1,.3.59.72.72,0,0,1-.23.5,3.84,3.84,0,0,0-1,1.24,48,48,0,0,1-6.95,11.24,42.56,42.56,0,0,1-11.23,9.21.54.54,0,0,1-.31.1.75.75,0,0,1-.48-.21,5.22,5.22,0,0,0-2-1,42.77,42.77,0,0,0,7.05-4.6,48,48,0,0,0,4.87-4.84,43.15,43.15,0,0,0,6.77-11l-10.38.28a57.74,57.74,0,0,1-7.11,7.7.93.93,0,0,1-.6.28,1,1,0,0,1-.53-.21,4.47,4.47,0,0,0-1.83-.75,40.52,40.52,0,0,0,9.41-10.48,13.72,13.72,0,0,0,2-4.82,8.3,8.3,0,0,1,2.7,1.27.56.56,0,0,1,.28.47.52.52,0,0,1-.28.46,3.88,3.88,0,0,0-1.09,1.23C1086.41,48.45,1085.87,49.31,1085.72,49.53Z"/><path d="M1109.2,45a17.59,17.59,0,0,1,2.94.58.5.5,0,0,1,.4.51,1,1,0,0,1-.07.35,10.76,10.76,0,0,0-.37,3.78V56.3c0,1.61,0,3.2.11,4.77,0,.37-.18.56-.53.56H1110c-.3,0-.46-.14-.46-.42V61.1c0-2.14.07-3.79.07-4.94V50.22A27.67,27.67,0,0,0,1109.2,45Zm1.65,26.51q5.64-1.65,8.4-4.94,2.89-3.52,2.89-9.65V50.73a32.91,32.91,0,0,0-.41-6.31,16.21,16.21,0,0,1,3.06.58.47.47,0,0,1,.37.47,1,1,0,0,1-.12.43c-.24.48-.35,2.05-.35,4.72v6.09q0,7-3.13,11a17.65,17.65,0,0,1-7.9,5.29,1.22,1.22,0,0,1-.42.09.9.9,0,0,1-.58-.27A6.49,6.49,0,0,0,1110.85,71.51Z"/><path d="M1135.29,55c.68-.38,1.21-.67,1.61-.86a.69.69,0,0,1,.25-.08.58.58,0,0,1,.4.25,21.26,21.26,0,0,1,3,5,1.25,1.25,0,0,1,.08.31c0,.11-.08.22-.26.34a10.56,10.56,0,0,1-1.37.65.68.68,0,0,1-.23,0c-.15,0-.27-.12-.35-.35A21.85,21.85,0,0,0,1135.29,55Zm18.17-1.94a8.2,8.2,0,0,1,2.67,1.13.54.54,0,0,1,.27.44.6.6,0,0,1-.23.42,5.71,5.71,0,0,0-1,1.72,42.53,42.53,0,0,1-5.29,9.28,31.18,31.18,0,0,1-7.28,6.84.79.79,0,0,1-.47.18.42.42,0,0,1-.32-.14,4.72,4.72,0,0,0-1.88-.88,33.55,33.55,0,0,0,8.07-7.17,32.66,32.66,0,0,0,4.89-8.86A14.26,14.26,0,0,0,1153.46,53.1Zm-11.16.27c.85-.46,1.41-.74,1.67-.85a.68.68,0,0,1,.23-.05.46.46,0,0,1,.38.28,20.09,20.09,0,0,1,2.69,5,.57.57,0,0,1,.06.21c0,.15-.1.27-.3.37a13.39,13.39,0,0,1-1.44.69l-.16,0c-.13,0-.25-.12-.35-.36A22.53,22.53,0,0,0,1142.3,53.37Z"/><path d="M1164.41,48.29c2,.18,4.29.28,6.91.28h12.74a4.06,4.06,0,0,0,1.82-.32.74.74,0,0,1,.42-.12.93.93,0,0,1,.51.16,9,9,0,0,1,1.61,1.47.85.85,0,0,1,.2.51.78.78,0,0,1-.3.6,3.43,3.43,0,0,0-.79,1.23,37.62,37.62,0,0,1-7.07,11.8,40.38,40.38,0,0,1-10.69,8.66,1.09,1.09,0,0,1-.61.21.75.75,0,0,1-.6-.28,6,6,0,0,0-1.88-1.21,34.94,34.94,0,0,0,11.64-8.9,32.82,32.82,0,0,0,6.76-11.51h-13.79q-3.13,0-6,.23h-.12c-.3,0-.47-.19-.53-.58,0-.09,0-.48-.09-1.16C1164.45,48.87,1164.42,48.51,1164.41,48.29Zm26.76-6.82a3.49,3.49,0,0,1,2.7,1.19,3.55,3.55,0,0,1,.94,2.44,3.5,3.5,0,0,1-1.2,2.71,3.54,3.54,0,0,1-2.44.93,3.51,3.51,0,0,1-2.71-1.19,3.63,3.63,0,0,1,2.71-6.08Zm0,1.37a2.15,2.15,0,0,0-1.69.74,2.19,2.19,0,0,0-.58,1.52,2.15,2.15,0,0,0,.74,1.69,2.2,2.2,0,0,0,1.53.58,2.13,2.13,0,0,0,1.68-.74,2.2,2.2,0,0,0,.58-1.53,2.17,2.17,0,0,0-.73-1.68A2.23,2.23,0,0,0,1191.17,42.84Z"/><path d="M1216.53,57.36a.25.25,0,0,1-.28.28l-4.69-.07h-8l-4.7.07a.25.25,0,0,1-.28-.28V55.83a.25.25,0,0,1,.28-.28l4.7.07h5.64a37.38,37.38,0,0,0,1.62-4.33,8.52,8.52,0,0,0,.33-1.93,16.77,16.77,0,0,1,2.07.53c.3.11.44.24.44.37a.87.87,0,0,1-.28.58,3.65,3.65,0,0,0-.54.86c-.4,1-.95,2.3-1.65,3.92h.35l4.69-.07a.24.24,0,0,1,.28.28ZM1216,48c0,.19-.08.28-.24.28l-4.5-.07h-6.84l-4.5.07c-.2,0-.3-.09-.3-.28V46.51a.27.27,0,0,1,.3-.3l4.5.07h2.27v-1a14.91,14.91,0,0,0-.23-3.1c.77,0,1.53.11,2.26.21.3,0,.44.15.44.3a2.58,2.58,0,0,1-.21.6,5.85,5.85,0,0,0-.19,2v1h2.5l4.5-.07q.24,0,.24.3Zm-1.72,26c0,.21-.1.32-.3.32h-1.55c-.18,0-.28-.11-.28-.32v-2h-8.79v2.16c0,.17-.09.25-.28.25h-1.63a.22.22,0,0,1-.25-.25l.07-6.08V65.35l-.07-3.9c0-.19.08-.28.25-.28l3.93.07H1210l4-.07a.24.24,0,0,1,.28.28l-.07,3.47v3Zm-8.76-20.06a.8.8,0,0,1,0,.21c0,.09-.13.17-.39.25l-1,.3a1.13,1.13,0,0,1-.34.07c-.11,0-.19-.09-.24-.28A19.53,19.53,0,0,0,1202,50a.82.82,0,0,1-.07-.21c0-.06.15-.13.44-.23l.93-.24a1.24,1.24,0,0,1,.35-.07.28.28,0,0,1,.27.17A19.56,19.56,0,0,1,1205.47,53.89ZM1212.1,70V63.16h-8.79V70Zm18-5.67q0,5.11-6.73,5.43l-.39,0c-.2,0-.35-.24-.47-.72a2.83,2.83,0,0,0-.65-1.35c4.08.07,6.11-1.12,6.11-3.57a5.75,5.75,0,0,0-1.28-3.53,30.73,30.73,0,0,0-4.59-4.47,56.82,56.82,0,0,0,5.05-10h-6.91v21l.07,7.27c0,.17-.09.25-.28.25h-1.67c-.19,0-.28-.08-.28-.25l.07-7.24V51.66l-.07-7.28a.25.25,0,0,1,.28-.28l3.22.07h5.53a2.69,2.69,0,0,0,.94-.1,1.05,1.05,0,0,1,.4-.07c.21,0,.53.21,1,.65s.61.75.61,1a.5.5,0,0,1-.24.48,2.67,2.67,0,0,0-.76,1.16,82.14,82.14,0,0,1-4.54,8.63,20.2,20.2,0,0,1,4.65,4.85A7.15,7.15,0,0,1,1230.1,64.34Z"/><g class="cls-3"><path class="cls-4" d="M1163.91,123.3v61.54l11.83,2.36c24.86,233.11-1.81,359.47,5.29,410.35,6.73,48.2,3.85,312,3.52,339.66.09.41-3.75,44.14-3.75,44.14a9,9,0,0,1-5,8.42c-1.6,13.87-6.63,53.85-13.44,75.11h-3.72v7.82l-5.12,18.46H1151l-5.08-18.41v-7.82h-3.71c-6.81-21.26-11.84-61.24-13.45-75.11a9,9,0,0,1-5-8.42s-3.83-43.73-3.74-44.14c-.33-27.63-3.22-291.46,3.52-339.66,7.1-50.88-19.57-177.24,5.28-410.35l11.83-2.36V123.35Zm-18.27,68.1c-1.32,11.87-4,33.55-5.44,58.83-2.1,35.82-2.85,78.86-2.85,111.46,0,88.41,8.31,123.08,14.86,123.08s14.86-34.67,14.86-123.08c0-33.11-.81-77-3-113.12-1.45-24.6-5.35-57.24-5.35-57.24Z"/><rect class="cls-2" x="1143.49" y="250.44" width="17.42" height="186.76"/></g><path class="cls-2" d="M236,178.07a23,23,0,1,1-11.6,3.16A22.43,22.43,0,0,1,236,178.07Zm0,1.6a20.82,20.82,0,0,0-10.77,2.94,21.44,21.44,0,0,0-7.67,7.67,21.22,21.22,0,0,0,0,21.55,21.36,21.36,0,0,0,7.67,7.67,21.22,21.22,0,0,0,21.55,0,21.33,21.33,0,0,0,7.66-7.67,21.15,21.15,0,0,0,0-21.55,21.41,21.41,0,0,0-7.66-7.67A20.88,20.88,0,0,0,236,179.67Zm2.49,7.08v25.34h5.49v2.85H229.16v-2.85H235V190.45a31.94,31.94,0,0,1-5.84,2.8l-.56-3a29.6,29.6,0,0,0,6.91-3.46Z"/><path class="cls-2" d="M236,388.16a23,23,0,1,1-11.6,3.15A22.51,22.51,0,0,1,236,388.16Zm0,1.6a20.82,20.82,0,0,0-10.77,2.94,21.44,21.44,0,0,0-7.67,7.67,21.22,21.22,0,0,0,0,21.55,21.44,21.44,0,0,0,7.67,7.67,21.22,21.22,0,0,0,21.55,0,21.41,21.41,0,0,0,7.66-7.67,21.15,21.15,0,0,0,0-21.55,21.41,21.41,0,0,0-7.66-7.67A20.88,20.88,0,0,0,236,389.76Zm-8.87,12.61q2-5.64,8.73-5.64a9,9,0,0,1,6.28,2.14,6.14,6.14,0,0,1,2.05,4.75,6,6,0,0,1-1.7,4.4,7.4,7.4,0,0,1-3.9,2v.38a7.77,7.77,0,0,1,4.87,2.66,6.76,6.76,0,0,1,1.41,4.37,7.44,7.44,0,0,1-2.82,6.14,9.49,9.49,0,0,1-6.14,1.95q-7.19,0-9.29-5.64l3.41-1.2a5.68,5.68,0,0,0,5.92,4.05,5,5,0,0,0,4-1.63,5.27,5.27,0,0,0,1.24-3.62q0-5.54-6.49-5.53h-2.33v-3h2c4.14,0,6.21-1.67,6.21-5a4.07,4.07,0,0,0-1.5-3.41,5.75,5.75,0,0,0-8.66,3Z"/><path class="cls-2" d="M1090.26,246.83a23,23,0,1,1-11.59,3.15A22.51,22.51,0,0,1,1090.26,246.83Zm0,1.6a20.84,20.84,0,0,0-10.77,2.94,21.36,21.36,0,0,0-7.67,7.67,21.2,21.2,0,0,0,0,21.54,21.28,21.28,0,0,0,7.67,7.67,21.22,21.22,0,0,0,21.55,0,21.36,21.36,0,0,0,7.67-7.67,21.2,21.2,0,0,0,0-21.54,21.44,21.44,0,0,0-7.67-7.67A20.88,20.88,0,0,0,1090.26,248.43Zm7.81,7.41v2.94h-12l-.4,6.56c-.08,1.52-.15,2.49-.19,2.92a6,6,0,0,1,5.5-2.83,7.58,7.58,0,0,1,6.19,2.87,9.77,9.77,0,0,1,2.09,6.43,9.4,9.4,0,0,1-2.91,7.31,8.76,8.76,0,0,1-6.14,2.26q-6.69,0-8.78-5.57l3.53-1.25a5,5,0,0,0,5.2,3.93,4.8,4.8,0,0,0,4.14-2,7.57,7.57,0,0,0,1.25-4.51,7.25,7.25,0,0,0-1.53-5,4.65,4.65,0,0,0-3.63-1.48,5.28,5.28,0,0,0-3.24,1.05,5.8,5.8,0,0,0-1.81,2.4l-3-.37.82-15.62Z"/><path class="cls-2" d="M956,178.07a23,23,0,1,1-11.6,3.16A22.39,22.39,0,0,1,956,178.07Zm0,1.6a20.88,20.88,0,0,0-10.78,2.94,21.52,21.52,0,0,0-7.67,7.67,21.22,21.22,0,0,0,0,21.55,21.44,21.44,0,0,0,7.67,7.67,21.22,21.22,0,0,0,21.55,0,21.44,21.44,0,0,0,7.67-7.67,21.22,21.22,0,0,0,0-21.55,21.52,21.52,0,0,0-7.67-7.67A20.87,20.87,0,0,0,956,179.67Zm-8.78,14.4a8.94,8.94,0,0,1,3.32-5.88,9.16,9.16,0,0,1,5.6-1.67,8.93,8.93,0,0,1,6.35,2.21,6.76,6.76,0,0,1,2.11,5.15,7.77,7.77,0,0,1-1.52,4.68,33.28,33.28,0,0,1-4.68,4.78,55.53,55.53,0,0,0-5.23,4.92,16.64,16.64,0,0,0-2.51,3.69h14v2.94H947v-2.66q2.47-5.22,8.75-10.63A27.08,27.08,0,0,0,960,197a5.76,5.76,0,0,0,.87-3.13,4.23,4.23,0,0,0-1.46-3.43,5,5,0,0,0-3.29-1c-3.23,0-5,1.83-5.44,5.48Z"/><path class="cls-2" d="M956,388.16a23,23,0,1,1-11.6,3.15A22.48,22.48,0,0,1,956,388.16Zm0,1.6a20.88,20.88,0,0,0-10.78,2.94,21.52,21.52,0,0,0-7.67,7.67,21.22,21.22,0,0,0,0,21.55,21.52,21.52,0,0,0,7.67,7.67,21.22,21.22,0,0,0,21.55,0,21.52,21.52,0,0,0,7.67-7.67,21.22,21.22,0,0,0,0-21.55,21.52,21.52,0,0,0-7.67-7.67A20.87,20.87,0,0,0,956,389.76Zm4.46,7.13V415.8h4.19v2.76h-4.19v6.49h-3.22v-6.49H945.44v-2.62l10.26-19.05Zm-3.22,18.91v-9.29c0-.94,0-2.19.1-3.74s.08-2.67.09-3.34h-.52c-.25.5-.58,1.2-1,2.09-.86,1.79-1.54,3.16-2,4.12l-5.32,10.16Z"/></svg>