<svg xmlns="http://www.w3.org/2000/svg" width="9.65" height="9.65" viewBox="0 0 9.65 9.65"><defs><style>.cls-1{fill:#fff;}.cls-2{fill:#e5002c;}</style></defs><g id="レイヤー_2" data-name="レイヤー 2"><g id="_1P" data-name="1P"><g id="指図書一覧"><g id="コンテンツ"><g id="検索エリア"><rect class="cls-1" x="6.17" y="5.81" width="0.99" height="1.72" transform="translate(-2.76 6.67) rotate(-45)"/><rect class="cls-2" x="7.28" y="6.45" width="1.64" height="3.31" rx="0.48" transform="translate(-3.36 8.1) rotate(-45)"/><path class="cls-2" d="M4,8A4,4,0,0,1,0,4,4,4,0,0,1,6.84,1.17a4,4,0,0,1,0,5.67A4,4,0,0,1,4,8Zm0-6.4A2.39,2.39,0,0,0,1.61,4a2.33,2.33,0,0,0,.7,1.69,2.38,2.38,0,0,0,3.39,0,2.38,2.38,0,0,0,0-3.39A2.33,2.33,0,0,0,4,1.61Z"/></g></g></g></g></g></svg>