<svg id="レイヤー_1" data-name="レイヤー 1" xmlns="http://www.w3.org/2000/svg" viewBox="0 0 1295.59 508.35"><defs><style>.cls-1{fill:none;stroke:#000;stroke-miterlimit:10;}.cls-2{fill:#e5002c;}</style></defs><rect class="cls-1" x="67.6" y="120.28" width="1163.04" height="358.98"/><path d="M71.2,48.29c2,.18,4.29.28,6.91.28H90.86a4,4,0,0,0,1.81-.32.76.76,0,0,1,.42-.12.93.93,0,0,1,.51.16,9,9,0,0,1,1.61,1.47.89.89,0,0,1,.2.51.78.78,0,0,1-.3.6,3.43,3.43,0,0,0-.79,1.23,37.77,37.77,0,0,1-7.07,11.8,40.38,40.38,0,0,1-10.69,8.66,1.09,1.09,0,0,1-.61.21.76.76,0,0,1-.6-.28,6,6,0,0,0-1.88-1.23,37.8,37.8,0,0,0,7.1-4.46,38.92,38.92,0,0,0,4.54-4.43,33,33,0,0,0,6.76-11.5H78.08q-3.14,0-6,.23h-.12c-.3,0-.47-.19-.53-.58,0-.09,0-.48-.09-1.16C71.24,48.87,71.21,48.51,71.2,48.29Z"/><path d="M106.31,45a17.46,17.46,0,0,1,2.93.58.5.5,0,0,1,.41.51,1.27,1.27,0,0,1-.07.35,10.76,10.76,0,0,0-.37,3.78V56.3c0,1.61,0,3.2.1,4.77,0,.37-.17.56-.53.56H107.1c-.31,0-.46-.14-.46-.42V61.1c0-2.14.07-3.79.07-4.94V50.22A27.67,27.67,0,0,0,106.31,45ZM108,71.51q5.64-1.65,8.4-4.94,2.88-3.52,2.88-9.65V50.73a33.15,33.15,0,0,0-.4-6.31,16.21,16.21,0,0,1,3.06.58.48.48,0,0,1,.37.47.88.88,0,0,1-.13.43,16.92,16.92,0,0,0-.35,4.72v6.09q0,7-3.13,11A17.56,17.56,0,0,1,110.77,73a1.22,1.22,0,0,1-.42.09.88.88,0,0,1-.58-.27A6.49,6.49,0,0,0,108,71.51Z"/><path d="M132.41,57.15a71,71,0,0,0,8,.31h11q3.78,0,7.89-.1l.16,0c.25,0,.37.15.37.44a8,8,0,0,1,0,.93,8.89,8.89,0,0,1,0,.95c0,.29-.12.44-.37.44l-.16,0c-1.8,0-4.4-.07-7.78-.07H138.25a32.36,32.36,0,0,0-3.89.21l-.7.11-.28,0a.62.62,0,0,1-.62-.51A17.81,17.81,0,0,1,132.41,57.15Z"/><rect class="cls-2" x="103.1" y="155.3" width="1092.03" height="287.98"/></svg>