<svg id="レイヤー_1" data-name="レイヤー 1" xmlns="http://www.w3.org/2000/svg" viewBox="0 0 1295.59 508.35"><defs><style>.cls-1{fill:none;stroke:#000;stroke-miterlimit:10;}.cls-2{fill:#e5002c;}</style></defs><rect class="cls-1" x="155.62" y="161.74" width="1064" height="51.08"/><rect class="cls-1" x="155.62" y="212.82" width="1064" height="51.08"/><rect class="cls-1" x="155.62" y="263.9" width="1064" height="51.08"/><rect class="cls-1" x="155.62" y="315.03" width="1064" height="51.08"/><rect class="cls-1" x="155.62" y="365.99" width="1064" height="51.08"/><path d="M189.32,123.52c0,.19-.1.28-.3.28l-4.68-.07H162.77l-4.67.07a.24.24,0,0,1-.28-.28v-1.71a.25.25,0,0,1,.28-.28l4.67.07h2.89q1.69-5.55,3.18-12h-1.78l-5,.07c-.19,0-.29-.09-.29-.28v-1.64a.26.26,0,0,1,.29-.28l5,.07h2.2q1-4.69,1.55-8.52h-5.54l-5,.07a.25.25,0,0,1-.28-.28V97.12a.24.24,0,0,1,.28-.28l5,.07h17l5-.07a.24.24,0,0,1,.28.28v1.67a.25.25,0,0,1-.28.28l-5-.07h-9.07c-.39,2.76-.89,5.61-1.51,8.52h5.83l5-.07c.21,0,.32.1.32.28l-.07,4v9.86h1.58l4.68-.07c.2,0,.3.1.3.28Zm-8.9-1.92v-12h-9.17q-1.49,6.57-3.17,12Z"/><path d="M221.75,103.34l-.07,3.85v10.42l0,4.89a2.83,2.83,0,0,1-1,2.41q-.9.75-5.22.75a1.17,1.17,0,0,1-.65-.1,1.94,1.94,0,0,1-.21-.62,6.33,6.33,0,0,0-.69-1.68c1.49.11,2.73.17,3.71.17a2.34,2.34,0,0,0,1.55-.38,1.85,1.85,0,0,0,.35-1.27V117h-19a17.56,17.56,0,0,1-4.5,8.68c-.23.24-.38.35-.45.35a1.61,1.61,0,0,1-.55-.33,5.46,5.46,0,0,0-1.48-.86,15.75,15.75,0,0,0,4.35-6.37,26.68,26.68,0,0,0,1.09-8.36v-2.92l0-3a41.22,41.22,0,0,1-3.37,2.39,1.48,1.48,0,0,1-.48.25c-.1,0-.25-.18-.44-.55a4.52,4.52,0,0,0-.93-1.23,24.42,24.42,0,0,0,9.69-9,9.73,9.73,0,0,0,1-2.3c.89.23,1.58.44,2.07.61.29.12.44.28.44.48s-.12.29-.35.45a3.22,3.22,0,0,0-.83,1.06l-.58.84h7.42a1.77,1.77,0,0,0,.72-.1,1,1,0,0,1,.37-.11,2.09,2.09,0,0,1,1,.6q.69.6.69.9c0,.17-.15.33-.44.47a3.24,3.24,0,0,0-.93.9c-1,1.51-1.82,2.62-2.38,3.32h4.72l5.08-.07A.25.25,0,0,1,221.75,103.34ZM212.06,99H204a28.73,28.73,0,0,1-3.68,4.14c.51,0,1.85,0,4,0h4.92A46.51,46.51,0,0,0,212.06,99Zm-3,16.22v-4.31H201.2a40.08,40.08,0,0,1-.28,4.31Zm0-6.1v-4.15H201.2v4.15Zm10.51,0v-4.15h-8.46v4.15Zm0,6.1v-4.31h-8.46v4.31Z"/><path d="M244.39,101.6a3.54,3.54,0,0,0-1,1c-.23.36-.37.54-.44.54s-.27-.12-.55-.35a33.62,33.62,0,0,1-4.71-5.24,30.59,30.59,0,0,1-6.52,7.14,1,1,0,0,1-.49.28c-.13,0-.27-.18-.41-.54a3.53,3.53,0,0,0-.82-1.25A21.62,21.62,0,0,0,236,96.31a6.25,6.25,0,0,0,.75-1.88,13.89,13.89,0,0,1,2.11.51c.25.08.37.19.37.31s-.1.3-.31.44l-.3.25A29.87,29.87,0,0,0,244.39,101.6Zm-.62,18.05a5.93,5.93,0,0,0-.14,1.34,1.36,1.36,0,0,1-.14.7,1.32,1.32,0,0,1-.58.23c-2.35.8-5.61,1.78-9.75,3a3.38,3.38,0,0,0-1.31.65.61.61,0,0,1-.47.18q-.27,0-.42-.39a15.56,15.56,0,0,1-.69-2,16.88,16.88,0,0,0,3.31-.6c.7-.17,1.61-.41,2.74-.72V111.37h-1.79l-3.75.07c-.2,0-.3-.09-.3-.28v-1.37c0-.19.1-.28.3-.28l3.75.07h1.79v-3.81H236l-3.11.07a.25.25,0,0,1-.28-.28v-1.34c0-.2.09-.3.28-.3L236,104h3l3.09-.09c.19,0,.28.1.28.3v1.34a.25.25,0,0,1-.28.28l-3.09-.07h-.62v3.81h1l3.74-.07c.2,0,.3.09.3.28v1.37c0,.19-.1.28-.3.28l-3.74-.07h-1v10.09Q241.51,120.53,243.77,119.65Zm-9.28-.17v.12c0,.13-.15.25-.44.35l-.89.32a1.06,1.06,0,0,1-.3.09q-.15,0-.18-.27a23.17,23.17,0,0,0-1.32-5.53.85.85,0,0,1-.05-.18c0-.11.11-.19.33-.26l.94-.32a1.44,1.44,0,0,1,.29-.09c.09,0,.16.08.21.23A24.18,24.18,0,0,1,234.49,119.48Zm8.81-5.26a.47.47,0,0,1-.21.37,1.68,1.68,0,0,0-.44.79c-.41,1.34-.81,2.49-1.18,3.45-.14.35-.28.52-.4.52a2,2,0,0,1-.5-.15,3.52,3.52,0,0,0-1-.3,29.93,29.93,0,0,0,1.39-4.34c.09-.46.15-.88.19-1.27a10.65,10.65,0,0,1,1.79.61C243.19,114,243.3,114.1,243.3,114.22Zm8-18.14a.75.75,0,0,1-.25.48,2.8,2.8,0,0,0-.47,1,43.85,43.85,0,0,1-2.11,6.22,29,29,0,0,1-3,5.19c-.18.29-.31.43-.39.43s-.21-.13-.48-.4a4.37,4.37,0,0,0-1.24-1,22,22,0,0,0,3.49-5.77,35.13,35.13,0,0,0,1.64-5.18,9.19,9.19,0,0,0,.26-2,13.72,13.72,0,0,1,2,.6C251.16,95.72,251.33,95.88,251.33,96.08ZM259.86,126a.25.25,0,0,1-.28.28h-1.64a.24.24,0,0,1-.28-.28v-1.91H248v2a.24.24,0,0,1-.28.28h-1.63c-.19,0-.29-.09-.29-.28l.07-6.89V115.7l-.07-4.68c0-.19.1-.28.29-.28l4.14.07h5.21l4.15-.07a.25.25,0,0,1,.28.28l-.07,4.22v3.87Zm-2.2-3.83v-9.4H248v9.4Zm4.69-14.38a5.89,5.89,0,0,0-1.3,1.29c-.23.31-.37.47-.42.47s-.23-.15-.44-.44a34.76,34.76,0,0,1-3.87-6.52A49.33,49.33,0,0,1,254,96a.7.7,0,0,1,0-.21c0-.08.15-.19.47-.33l.91-.36a1,1,0,0,1,.34-.1c.09,0,.17.08.23.24a38.66,38.66,0,0,0,2.69,7.11A26,26,0,0,0,262.35,107.75Z"/><path d="M281.07,98.56a.24.24,0,0,1-.28.28l-3.74-.07h-1a19,19,0,0,1,1.33,2.71.34.34,0,0,1,0,.16c0,.1-.12.19-.35.26l-1.16.33a1.3,1.3,0,0,1-.32.06c-.1,0-.19-.09-.26-.27a16.65,16.65,0,0,0-1.41-3.25h-3a24.31,24.31,0,0,1-3.48,4.36c-.27.27-.45.4-.54.4s-.28-.13-.51-.4a3.77,3.77,0,0,0-1.07-.86,20.09,20.09,0,0,0,5.15-6.91,6.47,6.47,0,0,0,.45-1.55,17.15,17.15,0,0,1,2,.44c.27.07.41.19.41.35a.68.68,0,0,1-.34.51,3.3,3.3,0,0,0-.52.83L271.93,97h5.12l3.74-.07a.25.25,0,0,1,.28.28Zm16.35,23.38c0,.19-.1.28-.3.28l-4.67-.07h-10l.07,4.06c0,.18-.08.26-.25.26h-1.67c-.18,0-.28-.08-.28-.26s0-.22,0-.55c0-1.12,0-2.29.05-3.51h-9.51l-4.67.07c-.21,0-.32-.09-.32-.28V120.6c0-.19.11-.28.32-.28l4.67.07h9.51v-2.46h-5.94l-5.11.07c-.17,0-.25-.09-.25-.28v-1.3c0-.19.08-.28.25-.28l5.11.07h5.94v-2.43H275.5l-5,.07a.24.24,0,0,1-.28-.28v-1.26c0-.19.09-.29.28-.29l5,.07h4.85v-2.51h-8.89l-4.89.07c-.2,0-.3-.09-.3-.28v-1.3c0-.17.1-.25.3-.25l4.89.07h8.89V105.5h-4.64l-5.08.07a.24.24,0,0,1-.28-.28V104c0-.19.09-.29.28-.29l5.08.07h4.64a12.44,12.44,0,0,0-.21-2.37c.6,0,1.37.08,2.32.18.27,0,.41.14.41.33a1.28,1.28,0,0,1-.18.49,2.82,2.82,0,0,0-.28,1.37h5l5.49-.07a.26.26,0,0,1,.28.29l-.07,3.14v.72l3.67-.07a.22.22,0,0,1,.25.25v1.3c0,.19-.09.28-.25.28l-3.67-.07v.86l.07,3.13a.25.25,0,0,1-.28.28l-5.44-.07h-5v2.43h6.29l5.08-.07a.24.24,0,0,1,.28.28v1.3a.24.24,0,0,1-.28.28l-5.08-.07h-6.29v2.46h10l4.67-.07c.2,0,.3.09.3.28Zm-.14-23.38c0,.19-.09.28-.26.28l-4.4-.07h-2.76a24.92,24.92,0,0,1,1.46,2.71.32.32,0,0,1,.05.16c0,.1-.12.19-.37.26l-1.07.33a1.3,1.3,0,0,1-.35.07c-.1,0-.19-.1-.26-.3a17.06,17.06,0,0,0-1.58-3.23h-3.47a19.08,19.08,0,0,1-1.69,2.2c-.24.29-.43.44-.58.44s-.25-.13-.49-.37a2.8,2.8,0,0,0-1-.69,18.08,18.08,0,0,0,3.4-5,5.58,5.58,0,0,0,.45-1.58,15.59,15.59,0,0,1,2.06.44c.25.07.37.18.37.32a.67.67,0,0,1-.25.47,4.06,4.06,0,0,0-.67.9L285.33,97h7.29l4.4-.07c.17,0,.26.1.26.28Zm-6.2,9.33V105.5h-8.67v2.39Zm0,4.2v-2.51h-8.67v2.51Z"/><rect class="cls-2" x="485.57" y="168.94" width="617.2" height="38.07"/><rect class="cls-2" x="485.57" y="219.87" width="617.2" height="38.07"/><rect class="cls-2" x="485.57" y="270.8" width="617.2" height="38.07"/><rect class="cls-2" x="485.57" y="321.73" width="617.2" height="38.07"/><rect class="cls-2" x="485.57" y="372.66" width="617.2" height="38.07"/><path d="M1124.89,107.64a22.53,22.53,0,0,0-4.15,7.08,21.47,21.47,0,0,0-1,6.81,20.61,20.61,0,0,0,1.35,7.7,23.13,23.13,0,0,0,3.81,6.19l-.87.71a21.67,21.67,0,0,1-4.94-7.2,19.93,19.93,0,0,1-1.33-7.4,19.32,19.32,0,0,1,1.75-8.35,22.17,22.17,0,0,1,4.52-6.25Z"/><path d="M1154.34,132.4a4.6,4.6,0,0,0-1,1.29c-.16.32-.3.48-.39.48a1.69,1.69,0,0,1-.46-.15,22.63,22.63,0,0,1-7.38-5,22.32,22.32,0,0,1-4.53-7.13,13.76,13.76,0,0,1-2.38,5.49,20.48,20.48,0,0,1-9.1,6.69,1.45,1.45,0,0,1-.44.12q-.18,0-.45-.42a4.86,4.86,0,0,0-1-1c4.21-1.46,7.34-3.58,9.39-6.39a12.26,12.26,0,0,0,2.37-5.67h-5.13l-4.17.06a.2.2,0,0,1-.23-.23v-1.39c0-.16.07-.24.23-.24l4.17.06h5.39a57.35,57.35,0,0,0,.37-6.33h-7.32l-4,.06c-.16,0-.25-.08-.25-.23v-1.39a.22.22,0,0,1,.25-.24l4,.06h16.94l4-.06a.21.21,0,0,1,.24.24v1.39a.21.21,0,0,1-.24.23l-4-.06h-7.73a60.2,60.2,0,0,1-.39,6.33h6.57l4.16-.06c.17,0,.25.08.25.24v1.39c0,.15-.08.23-.25.23l-4.16-.06h-5.92a20,20,0,0,0,5.39,7.65A22.75,22.75,0,0,0,1154.34,132.4Z"/><path d="M1184.37,129.21c-.15,2.06-.75,3.39-1.8,4s-3.41.91-7.4.91a33.23,33.23,0,0,1-7.15-.46c-1.16-.34-1.74-1.32-1.74-3v-9h-2.46a22,22,0,0,1-1.26,8.38,11.28,11.28,0,0,1-3.41,4.29,1.13,1.13,0,0,1-.43.26c-.06,0-.21-.12-.42-.37a3.5,3.5,0,0,0-1-.89,9.54,9.54,0,0,0,3.9-4.6,21.27,21.27,0,0,0,.92-7.07H1162l-3.6.07c-.16,0-.24-.08-.24-.25v-1.2a.21.21,0,0,1,.24-.24l3.6.06h5.07l3.6-.06c.17,0,.25.08.25.24v1.2a.22.22,0,0,1-.25.25l-.35,0-2.31,0v8.52q0,1.67,1.23,2a33.43,33.43,0,0,0,5.78.29q5.33,0,6.36-.72c.79-.49,1.23-1.77,1.33-3.83a4.15,4.15,0,0,0,1.25.57q.45.12.45.39Q1184.4,128.93,1184.37,129.21Zm-1.1-13.85c0,.18-.07.27-.23.27h-1.33a.24.24,0,0,1-.27-.27v-4.08h-21.21v4.23c0,.17-.08.26-.23.26h-1.39c-.16,0-.24-.09-.24-.26l.06-3.06v-1l-.06-1.65a.21.21,0,0,1,.24-.24l4.11.06h16.2l4.12-.06c.16,0,.23.08.23.24l0,1.42v1.11Zm-13.53.87a.21.21,0,0,1-.24.23l-2.82-.06H1164l-2.83.06a.21.21,0,0,1-.23-.23V115c0-.17.08-.25.23-.25l2.83.06h2.67l2.82-.06c.16,0,.24.08.24.25Zm14.13,2.82a.21.21,0,0,1-.24.24l-3.39-.06v4.86l.06,3.9a2.26,2.26,0,0,1-.8,1.86,5.77,5.77,0,0,1-3.2.57h-.44c-.3,0-.48,0-.54-.1a1.53,1.53,0,0,1-.18-.53,3.12,3.12,0,0,0-.54-1.2,23.66,23.66,0,0,0,2.73.15,1.06,1.06,0,0,0,1.2-1.2v-8.31h-3.61l-3.63.06a.21.21,0,0,1-.23-.24v-1.24a.21.21,0,0,1,.23-.24l3.63.06h3.61v-.91a17.32,17.32,0,0,0-.21-3.32q.89,0,1.89.18c.27,0,.4.13.4.27a2.11,2.11,0,0,1-.19.58,7.37,7.37,0,0,0-.18,2.18v1l3.39-.06a.21.21,0,0,1,.24.24Zm-7.71,5.89a.73.73,0,0,1,0,.16c0,.08-.08.17-.25.27l-.75.48a1.06,1.06,0,0,1-.33.15q-.11,0-.21-.21a20.25,20.25,0,0,0-2.31-3.85.34.34,0,0,1-.08-.18c0-.07.09-.16.25-.26l.76-.42a.82.82,0,0,1,.25-.11.27.27,0,0,1,.19.13A21.94,21.94,0,0,1,1176.16,124.94Z"/><path d="M1194.45,109c0,.08-.09.2-.28.38a3,3,0,0,0-.5,1.17,41.84,41.84,0,0,1-1.59,4.44v15.06l.06,4.72a.21.21,0,0,1-.24.23h-1.36a.2.2,0,0,1-.23-.23l0-4.72v-7.79c0-.82,0-2.18.12-4.06a33.46,33.46,0,0,1-2.52,3.91c-.14.2-.27.29-.37.29s-.14-.09-.2-.29a2.58,2.58,0,0,0-.72-1.14,30.77,30.77,0,0,0,5.47-11,8.46,8.46,0,0,0,.26-2,11.39,11.39,0,0,1,1.68.57C1194.33,108.76,1194.45,108.88,1194.45,109Zm4.37,20.52q0,.14-.21.3a3.1,3.1,0,0,0-.6.68,18.67,18.67,0,0,1-3.09,3.7q-.32.3-.42.3c-.08,0-.23-.11-.44-.33a3,3,0,0,0-.88-.66,15.54,15.54,0,0,0,3.57-4,3.13,3.13,0,0,0,.42-1,13.38,13.38,0,0,1,1.38.72C1198.73,129.31,1198.82,129.43,1198.82,129.54Zm4.92-2.25a.21.21,0,0,1-.24.23l-2.62-.06h-2.53l-2.62.06a.21.21,0,0,1-.24-.23l.06-3.94v-9.23l-.06-3.9c0-.16.08-.23.24-.23l2.62.06h2.53l2.62-.06c.16,0,.24.07.24.23l-.06,3.9v9.23Zm-1.69-11.94v-3.84h-4.88v3.84Zm0,5.18v-3.75h-4.88v3.75Zm0,5.47v-4h-4.88v4Zm3.37,6.87a2.76,2.76,0,0,0-1,.74c-.19.23-.32.34-.38.34s-.22-.12-.43-.36a30.66,30.66,0,0,1-2.88-4.15.28.28,0,0,1-.06-.13c0-.06.11-.14.33-.25l.63-.37a.85.85,0,0,1,.31-.13s.11.05.18.16A17.37,17.37,0,0,0,1205.42,132.87Zm3.08-21.56a.62.62,0,0,1-.08.23c-.05.12-.09.19-.1.23a22.18,22.18,0,0,0-.11,3.12v7.87l0,3.81a.2.2,0,0,1-.23.23h-1.33a.21.21,0,0,1-.24-.23l.06-3.81v-7.84a28.33,28.33,0,0,0-.2-4,12.4,12.4,0,0,1,1.84.15C1208.39,111.06,1208.5,111.15,1208.5,111.31Zm4.76-2.26a1.7,1.7,0,0,1-.19.57,12,12,0,0,0-.15,2.61v14.91l.06,4.53a2.8,2.8,0,0,1-.91,2.4,5,5,0,0,1-2.84.54h-.57c-.31,0-.5,0-.56-.1a1.21,1.21,0,0,1-.19-.5,3.45,3.45,0,0,0-.54-1.32,22.61,22.61,0,0,0,2.27.12,1.68,1.68,0,0,0,1.19-.32,1.66,1.66,0,0,0,.32-1.16V112.26a22.31,22.31,0,0,0-.21-3.64q1.14,0,2,.15C1213.14,108.81,1213.26,108.9,1213.26,109.05Z"/><path d="M1217.55,106.93a21.56,21.56,0,0,1,5,7.2,19.9,19.9,0,0,1,1.32,7.4,19.46,19.46,0,0,1-1.74,8.35,22.42,22.42,0,0,1-4.53,6.25l-.86-.71a22.68,22.68,0,0,0,4.14-7.08,23.13,23.13,0,0,0-.33-14.52,23.77,23.77,0,0,0-3.81-6.18Z"/><path class="cls-2" d="M450.11,164.19a23,23,0,1,1-11.6,3.15A22.54,22.54,0,0,1,450.11,164.19Zm0,1.6a20.82,20.82,0,0,0-10.77,2.94,21.28,21.28,0,0,0-7.67,7.67,21.22,21.22,0,0,0,0,21.55,21.36,21.36,0,0,0,7.67,7.67,21.2,21.2,0,0,0,21.54,0,21.36,21.36,0,0,0,7.67-7.67,21.22,21.22,0,0,0,0-21.55,21.28,21.28,0,0,0-7.67-7.67A20.82,20.82,0,0,0,450.11,165.79Zm2.49,7.08v25.34h5.48v2.84H443.31v-2.84h5.84V176.56a31.3,31.3,0,0,1-5.84,2.8l-.56-3a29.6,29.6,0,0,0,6.91-3.46Z"/><path class="cls-2" d="M450.11,215.19a23,23,0,1,1-11.6,3.16A22.45,22.45,0,0,1,450.11,215.19Zm0,1.6a20.82,20.82,0,0,0-10.77,2.94,21.36,21.36,0,0,0-7.67,7.67,21.22,21.22,0,0,0,0,21.55,21.36,21.36,0,0,0,7.67,7.67,21.2,21.2,0,0,0,21.54,0,21.36,21.36,0,0,0,7.67-7.67,21.22,21.22,0,0,0,0-21.55,21.36,21.36,0,0,0-7.67-7.67A20.82,20.82,0,0,0,450.11,216.79Zm-8.78,14.4a9,9,0,0,1,3.32-5.88,9.12,9.12,0,0,1,5.6-1.67,8.91,8.91,0,0,1,6.35,2.21,6.77,6.77,0,0,1,2.12,5.15,7.72,7.72,0,0,1-1.53,4.68,33.25,33.25,0,0,1-4.68,4.78,55.37,55.37,0,0,0-5.22,4.91,17.34,17.34,0,0,0-2.52,3.7h14V252H441.05v-2.66q2.47-5.22,8.75-10.63a27.87,27.87,0,0,0,4.33-4.59A5.79,5.79,0,0,0,455,231a4.2,4.2,0,0,0-1.46-3.43,5,5,0,0,0-3.29-1q-4.85,0-5.43,5.48Z"/><path class="cls-2" d="M450.11,267.2a23,23,0,1,1-11.6,3.15A22.54,22.54,0,0,1,450.11,267.2Zm0,1.6a20.82,20.82,0,0,0-10.77,2.94,21.2,21.2,0,0,0-7.67,7.67,21.2,21.2,0,0,0,0,21.54,21.28,21.28,0,0,0,7.67,7.67,21.2,21.2,0,0,0,21.54,0,21.28,21.28,0,0,0,7.67-7.67,21.2,21.2,0,0,0,0-21.54,21.2,21.2,0,0,0-7.67-7.67A20.82,20.82,0,0,0,450.11,268.8Zm-8.87,12.6q2-5.64,8.73-5.64a9,9,0,0,1,6.28,2.14,6.19,6.19,0,0,1,2.05,4.75,6,6,0,0,1-1.7,4.4,7.34,7.34,0,0,1-3.9,2v.37a7.82,7.82,0,0,1,4.87,2.66,6.81,6.81,0,0,1,1.41,4.38,7.46,7.46,0,0,1-2.82,6.14,9.51,9.51,0,0,1-6.14,1.95c-4.79,0-7.88-1.88-9.3-5.65l3.41-1.2a5.7,5.7,0,0,0,5.93,4.05,5,5,0,0,0,3.95-1.62,5.25,5.25,0,0,0,1.25-3.63q0-5.52-6.49-5.52h-2.33v-3h2q6.21,0,6.21-5a4.08,4.08,0,0,0-1.5-3.41,5.77,5.77,0,0,0-8.66,3Z"/><path class="cls-2" d="M450.11,318.2a23,23,0,1,1-11.6,3.15A22.54,22.54,0,0,1,450.11,318.2Zm0,1.6a20.82,20.82,0,0,0-10.77,2.94,21.28,21.28,0,0,0-7.67,7.67,21.22,21.22,0,0,0,0,21.55,21.25,21.25,0,0,0,7.67,7.66,21.2,21.2,0,0,0,21.54,0,21.25,21.25,0,0,0,7.67-7.66,21.22,21.22,0,0,0,0-21.55,21.28,21.28,0,0,0-7.67-7.67A20.82,20.82,0,0,0,450.11,319.8Zm4.47,7.13v18.91h4.19v2.75h-4.19v6.49h-3.22v-6.49H439.55V346l10.25-19.05Zm-3.22,18.91v-9.29c0-.94,0-2.19.09-3.74s.08-2.67.09-3.34H451c-.25.5-.59,1.2-1,2.09-.87,1.79-1.54,3.16-2,4.12l-5.31,10.16Z"/><path class="cls-2" d="M450.11,369.2a23,23,0,1,1-11.6,3.15A22.54,22.54,0,0,1,450.11,369.2Zm0,1.6a20.82,20.82,0,0,0-10.77,2.94,21.36,21.36,0,0,0-7.67,7.67,21.22,21.22,0,0,0,0,21.55,21.36,21.36,0,0,0,7.67,7.67,21.2,21.2,0,0,0,21.54,0,21.36,21.36,0,0,0,7.67-7.67,21.22,21.22,0,0,0,0-21.55,21.36,21.36,0,0,0-7.67-7.67A20.82,20.82,0,0,0,450.11,370.8Zm7.81,7.41v2.94h-12l-.4,6.57c-.08,1.52-.14,2.49-.19,2.91a6,6,0,0,1,5.51-2.82,7.6,7.6,0,0,1,6.19,2.87,9.77,9.77,0,0,1,2.09,6.42,9.38,9.38,0,0,1-2.92,7.32,8.77,8.77,0,0,1-6.14,2.26q-6.68,0-8.77-5.58l3.53-1.25a5,5,0,0,0,5.2,3.93,4.81,4.81,0,0,0,4.14-2,7.6,7.6,0,0,0,1.24-4.52,7.25,7.25,0,0,0-1.53-5,4.63,4.63,0,0,0-3.62-1.48,5.28,5.28,0,0,0-3.25,1.06,5.68,5.68,0,0,0-1.81,2.4l-3-.38.82-15.62Z"/><polygon class="cls-1" points="80.62 187.22 155.62 212.57 155.62 161.87 80.62 187.22"/><polygon points="79.67 187.22 109.97 197.46 109.97 176.97 79.67 187.22"/><polygon class="cls-1" points="80.62 238.3 155.62 263.65 155.62 212.94 80.62 238.3"/><polygon points="79.67 238.3 109.97 248.54 109.97 228.05 79.67 238.3"/><polygon class="cls-1" points="80.62 289.61 155.62 314.96 155.62 264.26 80.62 289.61"/><polygon points="79.67 289.61 109.97 299.86 109.97 279.37 79.67 289.61"/><polygon class="cls-1" points="80.62 340.69 155.62 366.04 155.62 315.34 80.62 340.69"/><polygon points="79.67 340.69 109.97 350.94 109.97 330.45 79.67 340.69"/><polygon class="cls-1" points="80.62 391.66 155.62 417.01 155.62 366.31 80.62 391.66"/><polygon points="79.67 391.66 109.97 401.9 109.97 381.41 79.67 391.66"/></svg>